<svg width="21" height="21" viewBox="0 0 21 21" fill="none" xmlns="http://www.w3.org/2000/svg">
<g clip-path="url(#clip0_841_795)">
<path d="M2.25 7.50049H18.75V18.0005C18.75 18.3983 18.592 18.7798 18.3107 19.0611C18.0294 19.3425 17.6478 19.5005 17.25 19.5005H3.75C3.35218 19.5005 2.97064 19.3425 2.68934 19.0611C2.40804 18.7798 2.25 18.3983 2.25 18.0005V7.50049Z" fill="#DBDDE0"/>
<path d="M20.25 6V3C20.25 2.60218 20.092 2.22064 19.8107 1.93934C19.5294 1.65804 19.1478 1.5 18.75 1.5H2.25C1.85218 1.5 1.47064 1.65804 1.18934 1.93934C0.908035 2.22064 0.75 2.60218 0.75 3V6C0.75 6.39783 0.908035 6.77936 1.18934 7.06066C1.47064 7.34196 1.85218 7.5 2.25 7.5H18.75C19.1478 7.5 19.5294 7.34196 19.8107 7.06066C20.092 6.77936 20.25 6.39783 20.25 6Z" fill="#DBDDE0"/>
<path d="M2.25 7.50049H18.75V18.0005C18.75 18.3983 18.592 18.7798 18.3107 19.0611C18.0294 19.3425 17.6478 19.5005 17.25 19.5005H3.75C3.35218 19.5005 2.97064 19.3425 2.68934 19.0611C2.40804 18.7798 2.25 18.3983 2.25 18.0005V7.50049Z" stroke="#781D66" stroke-width="1.94523" stroke-linecap="round" stroke-linejoin="round"/>
<path d="M20.25 6V3C20.25 2.60218 20.092 2.22064 19.8107 1.93934C19.5294 1.65804 19.1478 1.5 18.75 1.5H2.25C1.85218 1.5 1.47064 1.65804 1.18934 1.93934C0.908035 2.22064 0.75 2.60218 0.75 3V6C0.75 6.39783 0.908035 6.77936 1.18934 7.06066C1.47064 7.34196 1.85218 7.5 2.25 7.5H18.75C19.1478 7.5 19.5294 7.34196 19.8107 7.06066C20.092 6.77936 20.25 6.39783 20.25 6Z" stroke="#781D66" stroke-width="1.94523" stroke-linecap="round" stroke-linejoin="round"/>
<path d="M8.25 12H12.75" stroke="#781D66" stroke-width="1.94523" stroke-linecap="round" stroke-linejoin="round"/>
</g>
<defs>
<clipPath id="clip0_841_795">
<rect width="21" height="21" fill="white"/>
</clipPath>
</defs>
</svg>
