<svg width="32" height="32" viewBox="0 0 32 32" fill="none" xmlns="http://www.w3.org/2000/svg">
<ellipse cx="24.4207" cy="8.06151" rx="7.57895" ry="7.47167" fill="#F82121"/>
<path d="M24.982 11.5115C24.5172 11.5115 24.1399 11.0979 24.1399 10.5883V6.5876H23.5784C23.1136 6.5876 22.7363 6.17401 22.7363 5.66441C22.7363 5.1548 23.1136 4.74121 23.5784 4.74121H24.982C25.4469 4.74121 25.8241 5.1548 25.8241 5.66441V10.5883C25.8241 11.0979 25.4469 11.5115 24.982 11.5115Z" fill="white"/>
<path d="M13.8943 31.3064C11.3415 31.3064 9.2627 29.1343 9.2627 26.4637C9.2627 25.929 9.67768 25.4951 10.189 25.4951C10.7003 25.4951 11.1153 25.929 11.1153 26.4637C11.1153 28.0664 12.3628 29.3693 13.8943 29.3693C15.4258 29.3693 16.6732 28.0664 16.6732 26.4637C16.6732 25.929 17.0882 25.4951 17.5995 25.4951C18.1109 25.4951 18.5259 25.929 18.5259 26.4637C18.5259 29.1343 16.4473 31.3064 13.8943 31.3064Z" fill="white"/>
<path d="M24.6627 27.1562H3.12592C1.86639 27.1562 0.841797 26.1688 0.841797 24.955C0.841797 24.3108 1.1329 23.7009 1.64054 23.2819C1.67328 23.2543 1.70841 23.2292 1.74498 23.2064C3.66104 21.595 4.75757 19.2768 4.75757 16.8289V13.3194C4.75757 9.22263 7.63824 5.70557 11.7629 4.76584C12.2901 4.64884 12.8176 4.95954 12.9417 5.46787C13.0655 5.97482 12.7392 6.48292 12.2146 6.60245C8.97616 7.33949 6.71546 10.1018 6.71546 13.3194V16.8289C6.71546 19.868 5.33309 22.7436 2.92636 24.7171C2.90676 24.7323 2.88979 24.7461 2.86876 24.7599C2.83362 24.8028 2.79969 24.8682 2.79969 24.955C2.79969 25.1259 2.94858 25.2694 3.12592 25.2694H24.6627C24.8403 25.2694 24.9892 25.1259 24.9892 24.955C24.9892 24.8668 24.9552 24.8028 24.9187 24.7599C24.8991 24.7461 24.8807 24.7323 24.8625 24.7171C23.6931 23.7562 22.7701 22.5965 22.1202 21.2693C21.8879 20.7988 22.0966 20.2366 22.586 20.0127C23.0796 19.7888 23.6577 19.9926 23.8888 20.463C24.4055 21.5146 25.1299 22.438 26.0463 23.2103C26.0802 23.2329 26.1156 23.2568 26.1455 23.2819C26.656 23.7009 26.9471 24.3108 26.9471 24.955C26.9471 26.1688 25.9225 27.1562 24.6627 27.1562Z" fill="white"/>
</svg>
