<svg width="28" height="28" viewBox="0 0 28 28" fill="none" xmlns="http://www.w3.org/2000/svg">
<g clip-path="url(#clip0_399_1199)">
<path d="M2.75884 21.1517C7.04397 21.7329 10.987 23.8063 13.8945 27.0073C16.802 23.8063 20.745 21.7329 25.0301 21.1517C25.5179 21.0977 25.9683 20.865 26.2946 20.4984C26.6208 20.1319 26.7997 19.6574 26.7967 19.1667V3.18779C26.7967 2.90366 26.7357 2.62286 26.6177 2.36435C26.4998 2.10585 26.3278 1.87567 26.1133 1.68938C25.8988 1.50308 25.6467 1.36501 25.3743 1.28449C25.1018 1.20398 24.8152 1.1829 24.5339 1.22267C20.4363 1.90274 16.6879 3.9448 13.8945 7.01876C11.1011 3.9448 7.35262 1.90274 3.25508 1.22267C2.97376 1.1829 2.68717 1.20398 2.41469 1.28449C2.14221 1.36501 1.8902 1.50308 1.67567 1.68938C1.46115 1.87567 1.28912 2.10585 1.17121 2.36435C1.05331 2.62286 0.992267 2.90366 0.992224 3.18779V19.1667C0.989247 19.6574 1.16814 20.1319 1.49439 20.4984C1.82063 20.865 2.2711 21.0977 2.75884 21.1517Z" fill="#781D66"/>
<path d="M13.8945 27.0073C10.987 23.8063 7.04397 21.7329 2.75884 21.1517C2.2711 21.0977 1.82063 20.865 1.49439 20.4984C1.16814 20.1319 0.989247 19.6574 0.992224 19.1667V3.18779C0.992267 2.90366 1.05331 2.62286 1.17121 2.36435C1.28912 2.10585 1.46115 1.87567 1.67567 1.68938C1.8902 1.50308 2.14221 1.36501 2.41469 1.28449C2.68717 1.20398 2.97376 1.1829 3.25508 1.22267C7.35262 1.90274 11.1011 3.9448 13.8945 7.01876V27.0073Z" stroke="white" stroke-width="1.63789" stroke-linecap="round" stroke-linejoin="round"/>
<path d="M13.8945 27.0073C16.802 23.8063 20.745 21.7329 25.0302 21.1517C25.5179 21.0977 25.9684 20.865 26.2946 20.4984C26.6209 20.1319 26.7998 19.6574 26.7968 19.1667V3.18779C26.7967 2.90366 26.7357 2.62286 26.6178 2.36435C26.4999 2.10585 26.3279 1.87567 26.1133 1.68938C25.8988 1.50308 25.6468 1.36501 25.3743 1.28449C25.1018 1.20398 24.8153 1.1829 24.5339 1.22267C20.4364 1.90274 16.6879 3.9448 13.8945 7.01876V27.0073Z" stroke="white" stroke-width="1.63789" stroke-linecap="round" stroke-linejoin="round"/>
</g>
<defs>
<clipPath id="clip0_399_1199">
<rect width="27.7895" height="27.7895" fill="white" transform="translate(0 0.210938)"/>
</clipPath>
</defs>
</svg>
