<svg width="18" height="19" viewBox="0 0 18 19" fill="none" xmlns="http://www.w3.org/2000/svg">
<path d="M16.8131 8.98219C16.7795 8.60924 16.5992 8.26489 16.3117 8.0249C16.0242 7.78492 15.6532 7.66895 15.2803 7.70252C14.9073 7.73608 14.563 7.91643 14.323 8.20389C14.083 8.49134 13.967 8.86236 14.0006 9.23532C14.1116 10.4979 13.7773 11.7596 13.0556 12.8015C12.2769 13.9073 11.1339 14.7039 9.82683 15.0515C8.44032 15.4186 6.96834 15.279 5.67558 14.6578C4.30741 14.0006 3.2156 12.8809 2.59308 11.4966C3.02783 13.039 3.99421 14.378 5.3212 15.2765C6.7203 16.2025 8.40288 16.6012 10.0687 16.4015C11.8193 16.2158 13.4484 15.4191 14.67 14.1515C15.9387 12.8126 16.6972 11.0707 16.8131 9.22969V9.18469C16.8184 9.1173 16.8184 9.04959 16.8131 8.98219ZM3.99933 8.94282C3.8883 7.68021 4.22262 6.41855 4.94433 5.3766C5.72304 4.2708 6.86605 3.47428 8.17308 3.12661C9.55958 2.75952 11.0316 2.89913 12.3243 3.52036C13.6925 4.17759 14.7843 5.29728 15.4068 6.68159C14.9721 5.13911 14.0057 3.80014 12.6787 2.90161C11.2796 1.97567 9.59703 1.57696 7.9312 1.77662C6.18063 1.96235 4.55148 2.75899 3.32995 4.0266C2.06118 5.36558 1.30271 7.10747 1.18683 8.94844V8.99344C1.18121 9.06271 1.18121 9.13231 1.18683 9.20157C1.22039 9.57453 1.40074 9.91887 1.6882 10.1589C1.97566 10.3988 2.34668 10.5148 2.71964 10.4812C3.0926 10.4477 3.43695 10.2673 3.67694 9.97988C3.91693 9.69242 4.03289 9.3214 3.99933 8.94844V8.94282Z" fill="#781D66"/>
</svg>
