<svg width="22" height="22" viewBox="0 0 22 22" fill="none" xmlns="http://www.w3.org/2000/svg">
<path d="M16.4832 9.13056C15.8336 8.90683 15.2603 8.50457 14.8288 7.96989C14.3533 7.37416 13.7479 6.89509 13.0588 6.56931C12.3697 6.24353 11.6153 6.07968 10.8531 6.0903C9.82788 6.01769 8.81292 6.3339 8.01034 6.97596C7.20777 7.61802 6.67647 8.53882 6.52226 9.55498C6.826 9.04675 7.28315 8.64798 7.82792 8.41607C8.37269 8.18415 8.97698 8.13104 9.55385 8.26439C10.2023 8.49462 10.7748 8.89923 11.2082 9.43372C11.6863 10.0247 12.2929 10.4988 12.9819 10.82C13.6708 11.1412 14.4239 11.301 15.184 11.2873C16.2092 11.3599 17.2242 11.0437 18.0267 10.4017C18.8293 9.7596 19.3606 8.8388 19.5148 7.82264C19.2166 8.33695 18.7609 8.74174 18.215 8.97724C17.6691 9.21275 17.062 9.2665 16.4832 9.13056ZM5.223 13.4441C5.87258 13.6678 6.44596 14.0701 6.87739 14.6048C7.35287 15.2005 7.95832 15.6796 8.64741 16.0053C9.33649 16.3311 10.091 16.495 10.8531 16.4843C11.8783 16.5569 12.8933 16.2407 13.6959 15.5987C14.4984 14.9566 15.0297 14.0358 15.184 13.0197C14.8802 13.5279 14.4231 13.9267 13.8783 14.1586C13.3335 14.3905 12.7292 14.4436 12.1524 14.3103C11.5039 14.08 10.9314 13.6754 10.498 13.1409C10.0186 12.5514 9.41176 12.0783 8.72312 11.7573C8.03447 11.4362 7.28198 11.2755 6.52226 11.2873C5.49703 11.2147 4.48207 11.5309 3.67949 12.173C2.87692 12.815 2.34562 13.7358 2.19141 14.752C2.48963 14.2377 2.94533 13.8329 3.49121 13.5974C4.03709 13.3619 4.64424 13.3081 5.223 13.4441Z" fill="#781D66"/>
</svg>
