<svg width="23" height="23" viewBox="0 0 23 23" fill="none" xmlns="http://www.w3.org/2000/svg">
<path d="M17.9712 0.598633H4.27885C1.91949 0.598633 0 2.49095 0 4.81691V18.3154C0 20.6414 1.91949 22.5337 4.27885 22.5337H17.9712C20.3305 22.5337 22.25 20.6414 22.25 18.3154V4.81691C22.25 2.49095 20.3305 0.598633 17.9712 0.598633ZM20.5385 18.3154C20.5385 19.7108 19.3866 20.8464 17.9712 20.8464H4.27885C2.8634 20.8464 1.71154 19.7108 1.71154 18.3154V4.81691C1.71154 3.42151 2.8634 2.28594 4.27885 2.28594H17.9712C19.3866 2.28594 20.5385 3.42151 20.5385 4.81691V18.3154Z" fill="white"/>
<path d="M11.1282 11.4192C13.016 11.4192 14.5512 9.90565 14.5512 8.04455C14.5512 6.18344 13.016 4.66992 11.1282 4.66992C9.24033 4.66992 7.70508 6.18344 7.70508 8.04455C7.70508 9.90565 9.24033 11.4192 11.1282 11.4192ZM11.1282 6.35723C12.0721 6.35723 12.8397 7.11399 12.8397 8.04455C12.8397 8.9751 12.0721 9.73186 11.1282 9.73186C10.1842 9.73186 9.41662 8.9751 9.41662 8.04455C9.41662 7.11399 10.1842 6.35723 11.1282 6.35723Z" fill="white"/>
<path d="M11.1252 12.0068C7.82274 12.0068 5.13477 14.6559 5.13477 17.9124C5.13477 18.3781 5.51729 18.7561 5.99053 18.7561H16.2598C16.733 18.7561 17.1155 18.3781 17.1155 17.9124C17.1155 14.6559 14.4276 12.0068 11.1252 12.0068ZM6.93274 17.0688C7.33067 15.1461 9.05847 13.6941 11.1252 13.6941C13.1918 13.6941 14.9205 15.1461 15.3176 17.0688H6.93274Z" fill="white"/>
</svg>
