<svg width="17" height="17" viewBox="0 0 17 17" fill="none" xmlns="http://www.w3.org/2000/svg">
<path d="M15.3532 9.04984L13.7275 5.79846C13.7049 5.75398 13.6702 5.71672 13.6275 5.6909C13.5848 5.66509 13.5357 5.65174 13.4858 5.65236C13.4366 5.65215 13.3884 5.66572 13.3466 5.69155C13.3048 5.71738 13.2711 5.75442 13.2494 5.79846L11.6237 9.04984C11.6038 9.09033 11.5945 9.13518 11.5967 9.18023C11.5988 9.22528 11.6123 9.26905 11.6359 9.30749C11.6595 9.34592 11.6924 9.37776 11.7316 9.40006C11.7708 9.42235 11.815 9.43437 11.8601 9.43499H12.6703C12.4737 13.7197 7.27527 15.8952 4.08235 13.0078C3.92382 12.8682 3.71686 12.7965 3.506 12.8081C3.29514 12.8196 3.09722 12.9134 2.95484 13.0694C2.81246 13.2253 2.73699 13.4309 2.74467 13.642C2.75236 13.853 2.84258 14.0526 2.99592 14.1978C7.20354 18.0388 14.0941 15.1063 14.2906 9.43499H15.1141C15.1592 9.43421 15.2034 9.42214 15.2426 9.39988C15.2818 9.37762 15.3148 9.34588 15.3386 9.30756C15.3624 9.26924 15.3762 9.22558 15.3787 9.18055C15.3813 9.13553 15.3725 9.09059 15.3532 9.04984Z" fill="#781D66"/>
<path d="M3.54245 11.3476C3.59165 11.3481 3.64 11.3347 3.68185 11.3088C3.72371 11.283 3.75735 11.2457 3.77885 11.2015L5.40453 7.95014C5.42438 7.90965 5.43368 7.86479 5.43155 7.81975C5.42941 7.7747 5.41593 7.73092 5.39234 7.69249C5.36875 7.65405 5.33582 7.6222 5.29662 7.59991C5.25742 7.57761 5.21321 7.56559 5.16812 7.56497H4.35793C4.40758 6.59313 4.73138 5.65522 5.29187 4.85975C5.85235 4.06427 6.62661 3.44375 7.52506 3.06997C8.42351 2.6962 9.40943 2.58445 10.3687 2.74765C11.3281 2.91086 12.2216 3.34235 12.9459 3.9922C13.1044 4.13199 13.3114 4.20393 13.5224 4.19252C13.7334 4.1811 13.9315 4.08726 14.074 3.93119C14.2165 3.77512 14.292 3.56933 14.2842 3.35815C14.2764 3.14697 14.1859 2.9473 14.0323 2.80217C9.82468 -1.0389 2.93414 1.8937 2.73758 7.56497H1.91412C1.86902 7.5656 1.82482 7.57762 1.78562 7.59991C1.74642 7.62221 1.71349 7.65405 1.6899 7.69249C1.66631 7.73092 1.65282 7.7747 1.65069 7.81975C1.64856 7.8648 1.65785 7.90965 1.67771 7.95014L3.30338 11.2015C3.32546 11.2459 3.3596 11.2831 3.40189 11.3089C3.44417 11.3348 3.49289 11.3482 3.54245 11.3476Z" fill="#781D66"/>
</svg>
