<svg width="28" height="28" viewBox="0 0 28 28" fill="none" xmlns="http://www.w3.org/2000/svg">
<g clip-path="url(#clip0_495_4085)">
<path d="M9.08594 7.95062C9.08594 9.15556 9.5646 10.3111 10.4166 11.1632C11.2686 12.0152 12.4242 12.4938 13.6292 12.4938C14.8341 12.4938 15.9897 12.0152 16.8417 11.1632C17.6937 10.3111 18.1724 9.15556 18.1724 7.95062C18.1724 6.74569 17.6937 5.5901 16.8417 4.73809C15.9897 3.88607 14.8341 3.40741 13.6292 3.40741C12.4242 3.40741 11.2686 3.88607 10.4166 4.73809C9.5646 5.5901 9.08594 6.74569 9.08594 7.95062Z" stroke="white" stroke-width="1.91667" stroke-linecap="round" stroke-linejoin="round"/>
<path d="M18.1719 21.5803H24.9867" stroke="white" stroke-width="1.91667" stroke-linecap="round" stroke-linejoin="round"/>
<path d="M21.5801 18.1729V24.9877" stroke="white" stroke-width="1.91667" stroke-linecap="round" stroke-linejoin="round"/>
<path d="M6.81445 23.8519V21.5803C6.81445 20.3753 7.29311 19.2197 8.14513 18.3677C8.99715 17.5157 10.1527 17.037 11.3577 17.037H15.9009" stroke="white" stroke-width="1.91667" stroke-linecap="round" stroke-linejoin="round"/>
</g>
<defs>
<clipPath id="clip0_495_4085">
<rect width="27.2593" height="27.2593" rx="4" fill="white"/>
</clipPath>
</defs>
</svg>
