<svg width="21" height="21" viewBox="0 0 21 21" fill="none" xmlns="http://www.w3.org/2000/svg">
<g clip-path="url(#clip0_79_671)">
<path d="M18.375 0H2.625C1.17731 0 0 1.17731 0 2.625V18.375C0 19.8227 1.17731 21 2.625 21H18.375C19.8227 21 21 19.8227 21 18.375V2.625C21 1.17731 19.8227 0 18.375 0Z" fill="#1976D2"/>
<path fill-rule="evenodd" clip-rule="evenodd" d="M17.7188 10.5H14.4375V7.875C14.4375 7.1505 15.0255 7.21875 15.75 7.21875H17.0625V3.9375H14.4375C13.3932 3.9375 12.3917 4.35234 11.6533 5.09077C10.9148 5.82919 10.5 6.83071 10.5 7.875V10.5H7.875V13.7812H10.5V21H14.4375V13.7812H16.4062L17.7188 10.5Z" fill="#FAFAFA"/>
</g>
<defs>
<clipPath id="clip0_79_671">
<rect width="21" height="21" fill="white"/>
</clipPath>
</defs>
</svg>
