<svg width="24" height="22" viewBox="0 0 24 22" fill="none" xmlns="http://www.w3.org/2000/svg">
<path fill-rule="evenodd" clip-rule="evenodd" d="M23.2212 11.233C23.2212 5.28459 18.0719 0.461426 11.7212 0.461426C5.37052 0.461426 0.221191 5.28459 0.221191 11.233C0.221191 16.6092 4.42588 21.0654 9.92431 21.8743L9.92431 14.3476L7.00362 14.3476L7.00362 11.233L9.92431 11.233L9.92431 8.85988C9.92431 6.16074 11.6416 4.66859 14.2681 4.66859C15.5265 4.66859 16.8428 4.87921 16.8428 4.87921L16.8428 7.53027L15.3919 7.53027C13.9642 7.53027 13.5175 8.36026 13.5175 9.21333L13.5175 11.233L16.7067 11.233L16.1975 14.3476L13.5181 14.3476L13.5181 21.8752C19.0165 21.0669 23.2212 16.6106 23.2212 11.233Z" fill="white"/>
</svg>
