<svg width="25" height="27" viewBox="0 0 25 27" fill="none" xmlns="http://www.w3.org/2000/svg">
<path d="M3.3626 26.9202H21.0585C22.9135 26.9202 24.4211 25.3287 24.4211 23.3703V5.68046C24.4211 3.72209 22.9135 2.13059 21.0585 2.13059H19.7247V1.13902C19.7247 0.593648 19.302 0.147461 18.7854 0.147461C18.2688 0.147461 17.8461 0.593648 17.8461 1.13902V2.13059H6.57493V1.13902C6.57493 0.593648 6.1522 0.147461 5.6356 0.147461C5.11899 0.147461 4.69634 0.593648 4.69634 1.13902V2.13059H3.3626C1.50754 2.13059 0 3.72209 0 5.68046V23.3703C0 25.3287 1.50754 26.9202 3.3626 26.9202ZM1.87858 5.68046C1.87858 4.81781 2.54546 4.1138 3.3626 4.1138H4.69634V5.10536C4.69634 5.65074 5.11899 6.09692 5.6356 6.09692C6.1522 6.09692 6.57485 5.65074 6.57485 5.10536V4.1138H17.8461V5.10536C17.8461 5.65074 18.2688 6.09692 18.7854 6.09692C19.302 6.09692 19.7246 5.65074 19.7246 5.10536V4.1138H21.0584C21.8755 4.1138 22.5424 4.81781 22.5424 5.68046V8.57592H1.87858V5.68046ZM1.87858 10.559H22.5425V23.3703C22.5425 24.2329 21.8757 24.937 21.0585 24.937H3.3626C2.54546 24.937 1.87858 24.2329 1.87858 23.3703V10.559Z" fill="white"/>
</svg>
