<svg width="17" height="16" viewBox="0 0 17 16" fill="none" xmlns="http://www.w3.org/2000/svg">
<path d="M5.68652 5.59638L5.68519 5.59705L5.68319 5.59838L5.68652 5.59638ZM12.3225 5.47171C12.2761 5.42697 12.2247 5.38781 12.1692 5.35505C12.0906 5.30879 12.0034 5.27915 11.9129 5.26793C11.8225 5.25672 11.7306 5.26419 11.6432 5.28987C11.5557 5.31555 11.4744 5.3589 11.4044 5.41724C11.3343 5.47558 11.277 5.54767 11.2359 5.62905C11.0063 6.08166 10.6895 6.48448 10.3039 6.81438C10.363 6.48208 10.3929 6.14524 10.3932 5.80771C10.3945 4.78114 10.1237 3.77256 9.60841 2.88466C9.09315 1.99677 8.3518 1.26127 7.45986 0.753047C7.36157 0.697199 7.25069 0.667264 7.13765 0.666054C7.02461 0.664844 6.91311 0.6924 6.81365 0.746131C6.71419 0.799863 6.63002 0.878004 6.56907 0.97321C6.50811 1.06842 6.47236 1.17756 6.46519 1.29038C6.42787 1.92245 6.26262 2.54036 5.97946 3.10668C5.69629 3.673 5.30112 4.17595 4.81786 4.58505L4.66452 4.70971C4.15893 5.04988 3.71143 5.46925 3.33919 5.95171C2.76071 6.68046 2.35998 7.53397 2.1688 8.44455C1.97762 9.35513 2.00124 10.2977 2.23779 11.1976C2.47433 12.0975 2.9173 12.9298 3.53156 13.6287C4.14581 14.3275 4.91445 14.8737 5.77652 15.2237C5.87774 15.2649 5.98752 15.2806 6.09622 15.2694C6.20492 15.2582 6.3092 15.2204 6.39988 15.1595C6.49056 15.0985 6.56486 15.0161 6.61624 14.9197C6.66762 14.8233 6.6945 14.7157 6.69452 14.6064C6.69397 14.5358 6.68273 14.4656 6.66119 14.3984C6.51203 13.8377 6.46907 13.2542 6.53452 12.6777C7.16551 13.8674 8.17822 14.8104 9.40986 15.3551C9.56013 15.4222 9.72998 15.4313 9.88652 15.3804C10.8595 15.0663 11.736 14.5086 12.4328 13.7604C13.1296 13.0122 13.6235 12.0982 13.8676 11.1053C14.1116 10.1125 14.0978 9.07368 13.8274 8.08767C13.557 7.10165 13.039 6.20115 12.3225 5.47171ZM9.71919 14.0257C9.13805 13.7312 8.62539 13.3178 8.21454 12.8122C7.80369 12.3066 7.50385 11.7201 7.33452 11.091C7.28275 10.8792 7.24269 10.6646 7.21452 10.4484C7.19555 10.3107 7.13401 10.1823 7.0385 10.0813C6.94299 9.98031 6.81829 9.91169 6.68186 9.88505C6.63991 9.8769 6.59726 9.87288 6.55452 9.87305C6.43739 9.87293 6.32229 9.90368 6.22082 9.9622C6.11935 10.0207 6.03509 10.1049 5.97652 10.2064C5.42349 11.1606 5.14544 12.2492 5.17319 13.3517C4.68663 12.9735 4.27997 12.5025 3.9768 11.966C3.67363 11.4294 3.47996 10.8381 3.40704 10.2261C3.33411 9.61421 3.38338 8.99389 3.55197 8.40114C3.72056 7.80839 4.00514 7.255 4.38919 6.77305C4.6808 6.39427 5.03259 6.06591 5.43052 5.80105C5.44794 5.78988 5.46464 5.77763 5.48052 5.76438C5.48052 5.76438 5.67786 5.60105 5.68452 5.59771C6.63466 4.79441 7.3105 3.71469 7.61786 2.50905C8.34414 3.18062 8.82836 4.07322 8.99532 5.04822C9.16229 6.02323 9.00264 7.02608 8.54119 7.90105C8.48012 8.01783 8.45504 8.1501 8.4691 8.28113C8.48317 8.41217 8.53576 8.5361 8.62023 8.63726C8.7047 8.73842 8.81725 8.81227 8.94367 8.8495C9.0701 8.88672 9.20472 8.88563 9.33052 8.84638C10.3517 8.52613 11.2502 7.90074 11.9052 7.05438C12.299 7.63587 12.5565 8.29874 12.6584 8.99359C12.7604 9.68843 12.7042 10.3973 12.4941 11.0674C12.284 11.7376 11.9253 12.3516 11.4448 12.8638C10.9644 13.376 10.3745 13.7732 9.71919 14.0257Z" fill="#781D66"/>
</svg>
