<svg width="29" height="29" viewBox="0 0 29 29" fill="none" xmlns="http://www.w3.org/2000/svg">
<g clip-path="url(#clip0_852_235)">
<path d="M10.8757 4.8335H14.5007L16.9173 7.25016H22.959C23.5999 7.25016 24.2146 7.50478 24.6678 7.95799C25.121 8.4112 25.3757 9.02589 25.3757 9.66683V18.1252C25.3757 18.7661 25.121 19.3808 24.6678 19.834C24.2146 20.2872 23.5999 20.5418 22.959 20.5418H10.8757C10.2347 20.5418 9.62002 20.2872 9.16681 19.834C8.7136 19.3808 8.45898 18.7661 8.45898 18.1252V7.25016C8.45898 6.60922 8.7136 5.99453 9.16681 5.54132C9.62002 5.08811 10.2347 4.8335 10.8757 4.8335Z" stroke="#781D66" stroke-width="2" stroke-linecap="round" stroke-linejoin="round"/>
<path d="M20.5417 20.542V22.9587C20.5417 23.5996 20.2871 24.2143 19.8338 24.6675C19.3806 25.1207 18.7659 25.3753 18.125 25.3753H6.04167C5.40073 25.3753 4.78604 25.1207 4.33283 24.6675C3.87961 24.2143 3.625 23.5996 3.625 22.9587V12.0837C3.625 11.4427 3.87961 10.828 4.33283 10.3748C4.78604 9.92161 5.40073 9.66699 6.04167 9.66699H8.45833" stroke="#781D66" stroke-width="2" stroke-linecap="round" stroke-linejoin="round"/>
</g>
<defs>
<clipPath id="clip0_852_235">
<rect width="29" height="29" fill="white"/>
</clipPath>
</defs>
</svg>
