<svg width="17" height="18" viewBox="0 0 17 18" fill="none" xmlns="http://www.w3.org/2000/svg">
<path d="M6.28167 6.66337L6.2803 6.66405L6.27825 6.66542L6.28167 6.66337ZM13.1051 6.53518C13.0574 6.48917 13.0045 6.44891 12.9474 6.41522C12.8667 6.36766 12.777 6.33717 12.6839 6.32565C12.5909 6.31412 12.4965 6.32179 12.4066 6.3482C12.3166 6.37461 12.233 6.41918 12.161 6.47917C12.089 6.53915 12.03 6.61328 11.9877 6.69696C11.7517 7.16235 11.426 7.57655 11.0294 7.91577C11.0902 7.57408 11.121 7.22772 11.1213 6.88067C11.1226 5.8251 10.8442 4.78804 10.3143 3.87506C9.78452 2.96209 9.02223 2.20581 8.10509 1.68324C8.00403 1.62581 7.89002 1.59503 7.77378 1.59379C7.65755 1.59255 7.54291 1.62088 7.44064 1.67613C7.33836 1.73138 7.25182 1.81173 7.18914 1.90962C7.12646 2.00752 7.08971 2.11974 7.08233 2.23575C7.04395 2.88567 6.87404 3.52103 6.58288 4.10335C6.29172 4.68567 5.88538 5.20282 5.38847 5.62347L5.23081 5.75166C4.71094 6.10143 4.25079 6.53264 3.86804 7.02874C3.27322 7.77806 2.86118 8.65568 2.6646 9.59198C2.46802 10.5283 2.4923 11.4975 2.73553 12.4228C2.97876 13.3481 3.43424 14.2039 4.06584 14.9225C4.69745 15.6411 5.4878 16.2027 6.37422 16.5626C6.47829 16.605 6.59118 16.6211 6.70295 16.6096C6.81471 16.5981 6.92194 16.5592 7.01518 16.4965C7.10842 16.4338 7.18482 16.3492 7.23765 16.25C7.29048 16.1508 7.31812 16.0402 7.31814 15.9278C7.31757 15.8552 7.30602 15.7831 7.28387 15.714C7.1305 15.1375 7.08632 14.5374 7.15363 13.9447C7.80243 15.168 8.84375 16.1376 10.1102 16.6977C10.2647 16.7667 10.4393 16.776 10.6003 16.7237C11.6008 16.4007 12.502 15.8273 13.2185 15.058C13.9349 14.2886 14.4428 13.3488 14.6938 12.3279C14.9448 11.307 14.9305 10.2389 14.6525 9.22502C14.3744 8.21115 13.8418 7.28522 13.1051 6.53518ZM10.4282 15.3308C9.83069 15.028 9.30354 14.6028 8.88109 14.083C8.45864 13.5631 8.15033 12.9601 7.97622 12.3132C7.92299 12.0954 7.8818 11.8748 7.85283 11.6524C7.83333 11.5108 7.77004 11.3788 7.67183 11.275C7.57363 11.1711 7.44541 11.1006 7.30512 11.0732C7.26198 11.0648 7.21813 11.0607 7.17419 11.0608C7.05375 11.0607 6.9354 11.0923 6.83106 11.1525C6.72673 11.2127 6.64009 11.2993 6.57987 11.4036C6.01121 12.3847 5.72531 13.5041 5.75384 14.6377C5.25354 14.2489 4.8354 13.7645 4.52366 13.2129C4.21193 12.6612 4.01279 12.0531 3.93781 11.4239C3.86282 10.7947 3.91348 10.1568 4.08683 9.54735C4.26019 8.93785 4.5528 8.36883 4.9477 7.87327C5.24755 7.4838 5.60927 7.14616 6.01844 6.87382C6.03635 6.86233 6.05352 6.84974 6.06986 6.83611C6.06986 6.83611 6.27276 6.66817 6.27962 6.66474C7.25659 5.83875 7.95152 4.72853 8.26756 3.48884C9.01436 4.17938 9.51225 5.09719 9.68393 6.09973C9.85561 7.10227 9.69146 8.13345 9.21697 9.03313C9.15417 9.15321 9.12838 9.28921 9.14285 9.42395C9.15731 9.55869 9.21139 9.68611 9.29824 9.79013C9.38509 9.89415 9.50083 9.97009 9.63082 10.0084C9.76081 10.0466 9.89924 10.0455 10.0286 10.0052C11.0786 9.67587 12.0025 9.03281 12.676 8.16255C13.0809 8.76046 13.3457 9.44205 13.4505 10.1565C13.5553 10.871 13.4976 11.5999 13.2815 12.289C13.0655 12.978 12.6967 13.6094 12.2026 14.1361C11.7086 14.6627 11.1021 15.0711 10.4282 15.3308Z" fill="#781D66"/>
</svg>
