<svg width="50" height="51" viewBox="0 0 50 51" fill="none" xmlns="http://www.w3.org/2000/svg">
<path d="M39.1821 1.40906H46.8185C47.3971 1.40906 47.9521 1.63893 48.3613 2.0481C48.7704 2.45727 49.0003 3.01222 49.0003 3.59088V11.2272" stroke="#1C1F35" stroke-width="2" stroke-linecap="round" stroke-linejoin="round"/>
<path d="M39.1821 49.4091H46.8185C47.3971 49.4091 47.9521 49.1793 48.3613 48.7701C48.7704 48.3609 49.0003 47.806 49.0003 47.2273V39.5909" stroke="#1C1F35" stroke-width="2" stroke-linecap="round" stroke-linejoin="round"/>
<path d="M10.8182 49.4091H3.18182C2.60316 49.4091 2.04821 49.1793 1.63904 48.7701C1.22987 48.3609 1 47.806 1 47.2273V39.5909" stroke="#1C1F35" stroke-width="2" stroke-linecap="round" stroke-linejoin="round"/>
<path d="M10.8182 1.40906H3.18182C2.60316 1.40906 2.04821 1.63893 1.63904 2.0481C1.22987 2.45727 1 3.01222 1 3.59088V11.2272" stroke="#1C1F35" stroke-width="2" stroke-linecap="round" stroke-linejoin="round"/>
<path d="M25.0002 29.7728C29.8202 29.7728 33.7275 25.8654 33.7275 21.0455C33.7275 16.2256 29.8202 12.3182 25.0002 12.3182C20.1803 12.3182 16.2729 16.2256 16.2729 21.0455C16.2729 25.8654 20.1803 29.7728 25.0002 29.7728Z" fill="#C713A3" stroke="#1C1F35" stroke-width="2" stroke-linecap="round" stroke-linejoin="round"/>
<path d="M10.519 38.5C11.9137 35.8691 13.9988 33.6678 16.5502 32.1326C19.1017 30.5974 22.0231 29.7863 25.0009 29.7863C27.9786 29.7863 30.9 30.5974 33.4515 32.1326C36.0029 33.6678 38.088 35.8691 39.4827 38.5" stroke="#1C1F35" stroke-width="2" stroke-linecap="round" stroke-linejoin="round"/>
<path d="M7.95102 37.1604C9 35.4091 10 33.4091 12.7773 31.3497" stroke="#1C1F35" stroke-width="1.5" stroke-linecap="round" stroke-linejoin="round"/>
<path d="M31.9114 11.2769C33.5 12.4091 35.5 14.4091 36.4004 17.3519" stroke="#1C1F35" stroke-width="1.5" stroke-linecap="round" stroke-linejoin="round"/>
<path d="M19.5699 21.9599C18.7107 20.165 19.7109 16.1649 23.3923 15.4448" stroke="white" stroke-width="1.5" stroke-linecap="round" stroke-linejoin="round"/>
</svg>
