<svg width="31" height="31" viewBox="0 0 31 31" fill="none" xmlns="http://www.w3.org/2000/svg">
<g clip-path="url(#clip0_1283_674)">
<path d="M26.4091 0.5H4.59091C2.33156 0.5 0.5 2.33156 0.5 4.59091V26.4091C0.5 28.6684 2.33156 30.5 4.59091 30.5H26.4091C28.6684 30.5 30.5 28.6684 30.5 26.4091V4.59091C30.5 2.33156 28.6684 0.5 26.4091 0.5Z" fill="#0077B5"/>
<path d="M11.3068 8.68182C11.3068 9.18751 11.1569 9.68184 10.8759 10.1023C10.595 10.5228 10.1956 10.8505 9.72845 11.044C9.26125 11.2375 8.74716 11.2882 8.25119 11.1895C7.75521 11.0909 7.29963 10.8473 6.94205 10.4898C6.58448 10.1322 6.34096 9.6766 6.24231 9.18063C6.14365 8.68465 6.19428 8.17056 6.3878 7.70337C6.58132 7.23617 6.90904 6.83685 7.3295 6.5559C7.74997 6.27495 8.24431 6.125 8.75 6.125C9.42811 6.125 10.0784 6.39438 10.5579 6.87387C11.0374 7.35337 11.3068 8.00371 11.3068 8.68182Z" fill="white"/>
<path d="M10.7273 12.9432V24.2392C10.7277 24.3225 10.7117 24.4051 10.6801 24.4823C10.6486 24.5594 10.6021 24.6295 10.5433 24.6886C10.4845 24.7477 10.4147 24.7946 10.3377 24.8265C10.2608 24.8585 10.1782 24.875 10.0949 24.875H7.40002C7.31669 24.8752 7.23413 24.859 7.1571 24.8272C7.08007 24.7954 7.01008 24.7487 6.95115 24.6898C6.89223 24.6309 6.84553 24.5609 6.81374 24.4838C6.78196 24.4068 6.76571 24.3242 6.76593 24.2409V12.9432C6.76593 12.775 6.83274 12.6137 6.95165 12.4948C7.07057 12.3759 7.23185 12.3091 7.40002 12.3091H10.0949C10.2628 12.3095 10.4236 12.3766 10.5422 12.4954C10.6607 12.6143 10.7273 12.7753 10.7273 12.9432Z" fill="white"/>
<path d="M24.8136 18.8239V24.2921C24.8138 24.3687 24.7989 24.4446 24.7697 24.5154C24.7405 24.5862 24.6975 24.6506 24.6434 24.7048C24.5892 24.7589 24.5248 24.8019 24.454 24.8311C24.3832 24.8603 24.3073 24.8752 24.2307 24.875H21.3329C21.2563 24.8752 21.1804 24.8603 21.1096 24.8311C21.0387 24.8019 20.9744 24.7589 20.9202 24.7048C20.866 24.6506 20.8231 24.5862 20.7939 24.5154C20.7647 24.4446 20.7497 24.3687 20.75 24.2921V18.9926C20.75 18.2017 20.9818 15.529 18.6824 15.529C16.9011 15.529 16.538 17.358 16.4664 18.1796V24.2921C16.4665 24.4452 16.4062 24.5922 16.2987 24.7013C16.1912 24.8104 16.0451 24.8728 15.892 24.875H13.0932C13.0167 24.875 12.941 24.8599 12.8703 24.8306C12.7997 24.8013 12.7355 24.7583 12.6815 24.7042C12.6275 24.65 12.5848 24.5857 12.5557 24.515C12.5265 24.4443 12.5117 24.3685 12.5119 24.2921V12.8938C12.5117 12.8173 12.5265 12.7415 12.5557 12.6708C12.5848 12.6001 12.6275 12.5358 12.6815 12.4816C12.7355 12.4275 12.7997 12.3845 12.8703 12.3552C12.941 12.3259 13.0167 12.3108 13.0932 12.3108H15.892C16.0466 12.3108 16.1949 12.3722 16.3042 12.4815C16.4136 12.5909 16.475 12.7391 16.475 12.8938V13.879C17.1363 12.8869 18.1165 12.1216 20.2079 12.1216C24.8409 12.1216 24.8136 16.4477 24.8136 18.8239Z" fill="white"/>
</g>
<defs>
<clipPath id="clip0_1283_674">
<rect width="30" height="30" fill="white" transform="translate(0.5 0.5)"/>
</clipPath>
</defs>
</svg>
