<svg width="21" height="22" viewBox="0 0 21 22" fill="none" xmlns="http://www.w3.org/2000/svg">
<g clip-path="url(#clip0_79_667)">
<path d="M5.32515 21.4257C4.51288 21.4166 3.70826 21.2676 2.94659 20.9853C2.39039 20.7797 1.88716 20.4524 1.47371 20.0273C1.04748 19.6147 0.7197 19.1113 0.514706 18.5546C0.232596 17.793 0.0838316 16.9885 0.0749412 16.1763C0.0125588 14.8261 0 14.4211 0 11C0 7.57885 0.0137941 7.17532 0.0743235 5.82412C0.0842929 5.01228 0.23324 4.20814 0.514706 3.44659C0.720697 2.89029 1.04802 2.38687 1.47288 1.97288C1.88583 1.54704 2.38929 1.21956 2.94597 1.01471C3.70764 0.732362 4.51227 0.583388 5.32453 0.574324C6.67512 0.512559 7.08071 0.5 10.5 0.5C13.9193 0.5 14.3247 0.513794 15.6759 0.574324C16.4879 0.584222 17.2923 0.733171 18.054 1.01471C18.6105 1.21983 19.1138 1.5472 19.5269 1.97268C19.9525 2.38593 20.28 2.88939 20.4853 3.44597C20.7677 4.20763 20.9168 5.01225 20.9259 5.82453C20.9876 7.17574 21.0002 7.58029 21.0002 11.0004C21.0002 14.4205 20.9876 14.8251 20.9259 16.1763C20.9161 16.9884 20.7671 17.7929 20.4853 18.5546C20.2722 19.1071 19.9457 19.6087 19.527 20.0274C19.1083 20.446 18.6065 20.7723 18.054 20.9853C17.2924 21.2677 16.4877 21.4167 15.6755 21.4259C14.3255 21.4876 13.9197 21.5002 10.4996 21.5002C7.07947 21.5002 6.67491 21.4883 5.32494 21.4259" fill="url(#paint0_radial_79_667)"/>
<path d="M5.32515 21.4257C4.51288 21.4166 3.70826 21.2676 2.94659 20.9853C2.39039 20.7797 1.88716 20.4524 1.47371 20.0273C1.04748 19.6147 0.7197 19.1113 0.514706 18.5546C0.232596 17.793 0.0838316 16.9885 0.0749412 16.1763C0.0125588 14.8261 0 14.4211 0 11C0 7.57885 0.0137941 7.17532 0.0743235 5.82412C0.0842929 5.01228 0.23324 4.20814 0.514706 3.44659C0.720697 2.89029 1.04802 2.38687 1.47288 1.97288C1.88583 1.54704 2.38929 1.21956 2.94597 1.01471C3.70764 0.732362 4.51227 0.583388 5.32453 0.574324C6.67512 0.512559 7.08071 0.5 10.5 0.5C13.9193 0.5 14.3247 0.513794 15.6759 0.574324C16.4879 0.584222 17.2923 0.733171 18.054 1.01471C18.6105 1.21983 19.1138 1.5472 19.5269 1.97268C19.9525 2.38593 20.28 2.88939 20.4853 3.44597C20.7677 4.20763 20.9168 5.01225 20.9259 5.82453C20.9876 7.17574 21.0002 7.58029 21.0002 11.0004C21.0002 14.4205 20.9876 14.8251 20.9259 16.1763C20.9161 16.9884 20.7671 17.7929 20.4853 18.5546C20.2722 19.1071 19.9457 19.6087 19.527 20.0274C19.1083 20.446 18.6065 20.7723 18.054 20.9853C17.2924 21.2677 16.4877 21.4167 15.6755 21.4259C14.3255 21.4876 13.9197 21.5002 10.4996 21.5002C7.07947 21.5002 6.67491 21.4883 5.32494 21.4259" fill="url(#paint1_radial_79_667)"/>
<path d="M7.92163 11.0447C7.92167 10.5304 8.07423 10.0276 8.36002 9.59999C8.64581 9.17236 9.05199 8.83908 9.5272 8.6423C10.0024 8.44552 10.5253 8.39407 11.0297 8.49447C11.5342 8.59487 11.9975 8.8426 12.3612 9.20633C12.7248 9.57007 12.9724 10.0335 13.0727 10.5379C13.173 11.0424 13.1214 11.5653 12.9245 12.0404C12.7276 12.5156 12.3943 12.9217 11.9666 13.2074C11.5389 13.4931 11.0361 13.6455 10.5217 13.6454C9.83205 13.6453 9.17068 13.3713 8.68308 12.8836C8.19547 12.3958 7.92157 11.7344 7.92163 11.0447ZM6.51566 11.0447C6.51566 11.8371 6.75061 12.6116 7.1908 13.2704C7.63099 13.9292 8.25665 14.4426 8.98866 14.7459C9.72067 15.0491 10.5262 15.1284 11.3033 14.9738C12.0804 14.8192 12.7942 14.4377 13.3544 13.8775C13.9147 13.3172 14.2962 12.6034 14.4508 11.8263C14.6054 11.0492 14.526 10.2437 14.2228 9.51169C13.9196 8.77968 13.4062 8.15402 12.7474 7.71382C12.0886 7.27363 11.314 7.03868 10.5217 7.03868C9.99562 7.03865 9.47468 7.14226 8.98863 7.34357C8.50258 7.54488 8.06095 7.83997 7.68894 8.21197C7.31694 8.58397 7.02186 9.02561 6.82054 9.51166C6.61923 9.99771 6.51563 10.5186 6.51566 11.0447ZM13.7502 6.87995C13.7501 7.0651 13.8049 7.24612 13.9077 7.40011C14.0105 7.5541 14.1566 7.67416 14.3277 7.74509C14.4987 7.81602 14.6869 7.83464 14.8685 7.7986C15.0501 7.76256 15.217 7.67347 15.348 7.5426C15.4789 7.41174 15.5682 7.24497 15.6044 7.06339C15.6406 6.88182 15.6221 6.69358 15.5513 6.52249C15.4806 6.3514 15.3606 6.20514 15.2067 6.10221C15.0528 5.99928 14.8719 5.94429 14.6867 5.94421C14.4385 5.94432 14.2006 6.04293 14.025 6.21838C13.8495 6.39383 13.7508 6.63177 13.7506 6.87995M7.37027 17.3952C6.87556 17.3897 6.38548 17.2992 5.92148 17.1275C5.58498 16.9978 5.27937 16.7991 5.02431 16.5442C4.76926 16.2892 4.57041 15.9837 4.44057 15.6472C4.26882 15.1833 4.17828 14.6932 4.17292 14.1984C4.13504 13.3762 4.12763 13.1291 4.12763 11.0458C4.12763 8.96245 4.13586 8.71601 4.17292 7.89289C4.17892 7.39823 4.26944 6.90824 4.44057 6.44409C4.57026 6.10749 4.76905 5.8018 5.02412 5.54673C5.27919 5.29166 5.58488 5.09287 5.92148 4.96318C6.38546 4.79143 6.87556 4.70089 7.37027 4.69553C8.19257 4.65765 8.43963 4.65024 10.5221 4.65024C12.6046 4.65024 12.8519 4.65827 13.675 4.69574C14.1697 4.70174 14.6597 4.79226 15.1238 4.96339C15.4604 5.09309 15.7661 5.29188 16.0212 5.54695C16.2762 5.80202 16.475 6.1077 16.6047 6.4443C16.7765 6.90828 16.867 7.39838 16.8724 7.89309C16.9102 8.71662 16.9177 8.96245 16.9177 11.046C16.9177 13.1295 16.91 13.3757 16.8724 14.1989C16.8666 14.6935 16.7761 15.1836 16.6047 15.6477C16.4749 15.9841 16.276 16.2896 16.021 16.5446C15.7659 16.7995 15.4603 16.9982 15.1238 17.1279C14.6598 17.2997 14.1697 17.3902 13.675 17.3956C12.8527 17.4335 12.6057 17.4409 10.5221 17.4409C8.4386 17.4409 8.19236 17.4333 7.37027 17.3956M7.30563 3.2908C6.6583 3.30353 6.01783 3.42605 5.41151 3.65315C4.8932 3.85355 4.42249 4.16005 4.02955 4.55299C3.63661 4.94593 3.33011 5.41664 3.12971 5.93495C2.90264 6.54127 2.78012 7.18174 2.76736 7.82906C2.72886 8.66083 2.72021 8.92683 2.72021 11.0456C2.72021 13.1643 2.72907 13.4301 2.76736 14.2621C2.78012 14.9094 2.90264 15.5499 3.12971 16.1562C3.33013 16.6745 3.63662 17.1452 4.02956 17.5381C4.4225 17.9311 4.89321 18.2376 5.41151 18.438C6.01786 18.665 6.65831 18.7875 7.30563 18.8003C8.1378 18.8382 8.40339 18.8475 10.5221 18.8475C12.6409 18.8475 12.9067 18.8386 13.7386 18.8003C14.3859 18.7875 15.0264 18.665 15.6327 18.438C16.151 18.2376 16.6218 17.9311 17.0147 17.5381C17.4076 17.1452 17.7141 16.6745 17.9145 16.1562C18.1419 15.5499 18.2644 14.9094 18.2769 14.2621C18.3148 13.4297 18.3234 13.1643 18.3234 11.0456C18.3234 8.92683 18.3146 8.66103 18.2769 7.82906C18.2642 7.18174 18.1416 6.54126 17.9145 5.93495C17.7141 5.41674 17.4077 4.9461 17.0149 4.55317C16.6221 4.16024 16.1515 3.85369 15.6334 3.65315C15.0271 3.42591 14.3866 3.30338 13.7392 3.2908C12.9073 3.25271 12.6415 3.24365 10.5232 3.24365C8.40483 3.24365 8.13842 3.25251 7.30604 3.2908" fill="white"/>
</g>
<defs>
<radialGradient id="paint0_radial_79_667" cx="0" cy="0" r="1" gradientUnits="userSpaceOnUse" gradientTransform="translate(1.35903 21.0401) scale(26.6622)">
<stop offset="0.09" stop-color="#FA8F21"/>
<stop offset="0.78" stop-color="#D82D7E"/>
</radialGradient>
<radialGradient id="paint1_radial_79_667" cx="0" cy="0" r="1" gradientUnits="userSpaceOnUse" gradientTransform="translate(14.546 20.3656) scale(23.463)">
<stop offset="0.64" stop-color="#8C3AAA" stop-opacity="0"/>
<stop offset="1" stop-color="#8C3AAA"/>
</radialGradient>
<clipPath id="clip0_79_667">
<rect width="21" height="21" fill="white" transform="translate(0 0.5)"/>
</clipPath>
</defs>
</svg>
