<svg width="24" height="24" viewBox="0 0 24 24" fill="none" xmlns="http://www.w3.org/2000/svg">
<g clip-path="url(#clip0_403_96)">
<path d="M18.75 13.5C18.75 13.5 15.5526 13.5 15.5479 13.5C14.9859 13.5 14.6175 14.1446 14.9004 14.6294C14.9648 14.7385 15 14.8704 15 15C15 15.4138 14.6638 15.75 14.25 15.75C13.8362 15.75 13.5 15.4138 13.5 15C13.5 14.8704 13.5352 14.7385 13.5996 14.6294C13.8875 14.1418 13.5118 13.5 12.9521 13.5H10.5V12C11.7407 12 12.75 10.9907 12.75 9.75C12.75 8.50927 11.7407 7.5 10.5 7.5V5.25C10.5 4.83545 10.1642 4.5 9.75 4.5H2.25C1.00927 4.5 0 5.50927 0 6.75V21.75C0 22.9907 1.00927 24 2.25 24H17.25C18.4907 24 19.5 22.9907 19.5 21.75V14.25C19.5 13.8355 19.1645 13.5 18.75 13.5ZM1.5 6.75C1.5 6.33618 1.83655 6 2.25 6H9V8.45215C9 9.01707 9.64137 9.38356 10.129 9.09961C10.2385 9.03516 10.37 9 10.5 9C10.9135 9 11.25 9.33618 11.25 9.75C11.25 10.1638 10.9135 10.5 10.5 10.5C10.37 10.5 10.2385 10.4648 10.129 10.4004C9.63949 10.1122 9 10.4847 9 11.0479V13.5H7.5C7.5 12.2593 6.49073 11.25 5.25 11.25C4.00927 11.25 3 12.2593 3 13.5H1.5V6.75ZM9 22.5H2.25C1.83655 22.5 1.5 22.1638 1.5 21.75V15H3.95252C4.51305 15 4.88246 14.354 4.59961 13.8706C4.53552 13.7615 4.5 13.6296 4.5 13.5C4.5 13.0862 4.83655 12.75 5.25 12.75C5.66345 12.75 6 13.0862 6 13.5C6 13.6296 5.96448 13.7614 5.90039 13.8706C5.61598 14.3549 5.98915 15 6.54749 15H9V16.5C7.75927 16.5 6.75 17.5093 6.75 18.75C6.75 19.9907 7.75927 21 9 21V22.5ZM18 21.75C18 22.1638 17.6638 22.5 17.25 22.5H10.5C10.5 22.5 10.5 20.0499 10.5 20.0479C10.5 19.4795 9.86211 19.1144 9.37097 19.4004C9.26147 19.4648 9.13 19.5 9 19.5C8.58655 19.5 8.25 19.1638 8.25 18.75C8.25 18.3362 8.58655 18 9 18C9.13 18 9.26147 18.0352 9.37097 18.0996C9.86105 18.3881 10.5 18.0188 10.5 17.4521V15H12C12 16.2407 13.0093 17.25 14.25 17.25C15.4907 17.25 16.5 16.2407 16.5 15H18V21.75Z" fill="white"/>
<path d="M21.7495 0H14.2495C13.835 0 13.4995 0.335452 13.4995 0.75V3.95215C13.4996 4.43275 14.017 4.79549 14.4702 4.66168C14.6539 4.60739 14.7988 4.5 14.9995 4.5C15.4133 4.5 15.7495 4.83618 15.7495 5.25C15.7495 5.66382 15.4133 6 14.9995 6C14.8699 6 14.738 5.96484 14.6289 5.90039C14.1492 5.62147 13.498 5.99767 13.498 6.55079V9.75293C13.498 10.1675 13.8335 10.5029 14.2626 10.5H16.4995C16.4995 11.7407 17.5088 12.75 18.7495 12.75C19.9902 12.75 20.9995 11.7407 20.9995 10.5H23.2495C23.6641 10.5 23.9995 10.1645 23.9995 9.75V2.25C23.9995 1.00927 22.9902 0 21.7495 0ZM22.4995 9H20.0474C19.6368 9 19.2649 9.40457 19.3099 9.81857C19.3359 10.0562 19.4995 10.2585 19.4995 10.5C19.4995 10.9138 19.1633 11.25 18.7495 11.25C18.3357 11.25 17.9995 10.9138 17.9995 10.5C17.9995 10.2958 18.1087 10.1221 18.1636 9.93145C18.2914 9.48706 17.9155 9 17.4517 9H14.998L14.9995 7.5C16.2402 7.5 17.2495 6.49073 17.2495 5.25C17.2495 4.00927 16.2402 3 14.9995 3V1.5H21.7495C22.1633 1.5 22.4995 1.83618 22.4995 2.25V9Z" fill="white"/>
</g>
<defs>
<clipPath id="clip0_403_96">
<rect width="24" height="24" fill="white"/>
</clipPath>
</defs>
</svg>
