<svg width="24" height="24" viewBox="0 0 24 24" fill="none" xmlns="http://www.w3.org/2000/svg">
<g clip-path="url(#clip0_465_1793)">
<path d="M22.4021 10.3789L19.6734 7.6502C19.2937 7.27048 18.7789 7.05694 18.2415 7.05694L6.76374 7.05694C6.49779 7.05692 6.23444 7.10928 5.98873 7.21105C5.74301 7.31282 5.51976 7.46199 5.3317 7.65004C5.14364 7.8381 4.99447 8.06136 4.8927 8.30707C4.79094 8.55279 4.73857 8.81614 4.73859 9.08209V15.9184C4.73857 16.1844 4.79094 16.4477 4.8927 16.6934C4.99447 16.9391 5.14364 17.1624 5.3317 17.3504C5.51976 17.5385 5.74301 17.6877 5.98873 17.7894C6.23444 17.8912 6.49779 17.9436 6.76374 17.9436L18.2422 17.9428C18.7789 17.9428 19.2937 17.7297 19.6734 17.3503L22.4021 14.6216C22.9647 14.059 23.2808 13.2959 23.2808 12.5002C23.2808 11.7046 22.9647 10.9415 22.4021 10.3789Z" stroke="#404040" stroke-linecap="round" stroke-linejoin="round"/>
</g>
<defs>
<clipPath id="clip0_465_1793">
<rect width="24" height="24" fill="white"/>
</clipPath>
</defs>
</svg>
