<svg width="26" height="26" viewBox="0 0 26 26" fill="none" xmlns="http://www.w3.org/2000/svg">
<g clip-path="url(#clip0_403_194)">
<path d="M18.2812 14.625C19.6472 14.625 20.9824 14.22 22.1182 13.4611C23.2539 12.7022 24.1391 11.6236 24.6618 10.3617C25.1845 9.09971 25.3213 7.71109 25.0548 6.37141C24.7883 5.03173 24.1306 3.80115 23.1647 2.8353C22.1989 1.86944 20.9683 1.21168 19.6286 0.945205C18.2889 0.678726 16.9003 0.815492 15.6383 1.33821C14.3764 1.86093 13.2978 2.74612 12.5389 3.88185C11.78 5.01757 11.375 6.35283 11.375 7.71875C11.3772 9.54974 12.1055 11.3051 13.4002 12.5998C14.6949 13.8945 16.4503 14.6229 18.2812 14.625ZM18.2812 13C17.4411 12.9994 16.6132 12.7977 15.8669 12.4118C15.1206 12.026 14.4775 11.4671 13.9912 10.7819C14.5288 10.0233 15.2577 9.42055 16.1037 9.035C16.3666 9.35919 16.6984 9.6206 17.0751 9.80016C17.4519 9.97972 17.8639 10.0729 18.2812 10.0729C18.6986 10.0729 19.1106 9.97972 19.4874 9.80016C19.8641 9.6206 20.1959 9.35919 20.4587 9.035C21.3048 9.42055 22.0337 10.0233 22.5713 10.7819C22.085 11.4671 21.4419 12.026 20.6956 12.4118C19.9493 12.7977 19.1214 12.9994 18.2812 13ZM17.0625 7.23125C17.0625 6.99021 17.134 6.75457 17.2679 6.55415C17.4018 6.35373 17.5922 6.19752 17.8149 6.10527C18.0376 6.01303 18.2826 5.9889 18.519 6.03592C18.7554 6.08295 18.9726 6.19902 19.143 6.36947C19.3135 6.53991 19.4296 6.75707 19.4766 6.99349C19.5236 7.2299 19.4995 7.47495 19.4072 7.69765C19.315 7.92035 19.1588 8.11069 18.9584 8.24461C18.7579 8.37852 18.5223 8.45 18.2812 8.45C17.958 8.45 17.648 8.3216 17.4195 8.09304C17.1909 7.86448 17.0625 7.55449 17.0625 7.23125ZM18.2812 2.4375C19.6813 2.43965 21.0233 2.99676 22.0133 3.98672C23.0032 4.97668 23.5604 6.31874 23.5625 7.71875C23.5616 8.20255 23.4933 8.68386 23.3594 9.14875C22.7229 8.45769 21.9513 7.90461 21.0925 7.52375C21.1009 7.42643 21.1009 7.32857 21.0925 7.23125C21.0925 6.47704 20.7929 5.75372 20.2596 5.22042C19.7263 4.68711 19.003 4.3875 18.2487 4.3875C17.4945 4.3875 16.7712 4.68711 16.2379 5.22042C15.7046 5.75372 15.405 6.47704 15.405 7.23125C15.3966 7.32857 15.3966 7.42643 15.405 7.52375C14.5461 7.90461 13.7746 8.45769 13.1381 9.14875C13.0261 8.68077 12.9797 8.19951 13 7.71875C13.0021 6.31874 13.5593 4.97668 14.5492 3.98672C15.5392 2.99676 16.8812 2.43965 18.2812 2.4375Z" fill="white"/>
<path d="M17.6388 18.0372L14.9494 15.3478C14.8735 15.2725 14.7834 15.2129 14.6845 15.1725C14.5855 15.132 14.4795 15.1115 14.3725 15.1122C14.1594 15.1131 13.9551 15.1977 13.8038 15.3478L10.0419 19.1097C9.62386 19.5277 9.05686 19.7626 8.46566 19.7626C7.87445 19.7626 7.30745 19.5277 6.88941 19.1097C6.47136 18.6916 6.2365 18.1246 6.2365 17.5334C6.2365 16.9422 6.47136 16.3752 6.88941 15.9572L10.6513 12.1872C10.8014 12.0358 10.886 11.8316 10.8869 11.6184C10.8875 11.5115 10.867 11.4055 10.8266 11.3065C10.7862 11.2075 10.7266 11.1175 10.6513 11.0415L7.96191 8.36029C7.80967 8.20896 7.60374 8.12402 7.38909 8.12402C7.17444 8.12402 6.96851 8.20896 6.81628 8.36029L3.05441 12.1222C2.32401 12.8284 1.74152 13.6729 1.34089 14.6065C0.940272 15.5402 0.729536 16.5442 0.720975 17.5601C0.712414 18.5761 0.9062 19.5835 1.29103 20.5238C1.67587 21.464 2.24404 22.3182 2.96243 23.0366C3.68083 23.755 4.53505 24.3232 5.47531 24.708C6.41556 25.0929 7.42302 25.2867 8.43894 25.2781C9.45487 25.2695 10.4589 25.0588 11.3926 24.6582C12.3262 24.2576 13.1707 23.6751 13.8769 22.9447L17.6388 19.1828C17.7901 19.0306 17.875 18.8246 17.875 18.61C17.875 18.3953 17.7901 18.1894 17.6388 18.0372ZM7.38503 10.0828L8.92878 11.6265L7.38503 13.1622L5.84941 11.6265L7.38503 10.0828ZM8.46566 23.5622C7.27418 23.5616 6.10958 23.208 5.11893 22.546C4.12827 21.8841 3.35597 20.9434 2.89957 19.8428C2.44316 18.7422 2.3231 17.531 2.55456 16.3623C2.78602 15.1935 3.35861 14.1195 4.20003 13.2759L4.70378 12.7722L6.23941 14.3078L5.74378 14.8115C5.05928 15.5409 4.6854 16.508 4.70126 17.5081C4.71712 18.5083 5.12149 19.463 5.82878 20.1703C6.53607 20.8776 7.49081 21.2819 8.49094 21.2978C9.49108 21.3137 10.4582 20.9398 11.1875 20.2553L11.6913 19.7597L13.2269 21.2953L12.7232 21.799C12.1654 22.3599 11.5019 22.8045 10.7711 23.1072C10.0402 23.4098 9.25665 23.5645 8.46566 23.5622ZM14.3725 20.1497L12.8369 18.614L14.3725 17.0622L15.9163 18.6059L14.3725 20.1497Z" fill="white"/>
<path d="M19.4121 20.2344L20.4261 18.9652L23.8401 21.6929L22.8261 22.962L19.4121 20.2344Z" fill="white"/>
<path d="M17.0215 23.8066L17.1669 20.3484L18.7904 20.4167L18.6451 23.8749L17.0215 23.8066Z" fill="white"/>
<path d="M3.0332 3.16699L4.30233 2.15299L7.02999 5.56694L5.76086 6.58094L3.0332 3.16699Z" fill="white"/>
<path d="M2.14844 7.36035L5.59851 7.2153L5.66677 8.83887L2.2167 8.98392L2.14844 7.36035Z" fill="white"/>
</g>
<defs>
<clipPath id="clip0_403_194">
<rect width="26" height="26" fill="white"/>
</clipPath>
</defs>
</svg>
