<svg width="23" height="23" viewBox="0 0 23 23" fill="none" xmlns="http://www.w3.org/2000/svg">
<g clip-path="url(#clip0_74_654)">
<path d="M22.2526 11.3763C22.2526 17.2542 17.4872 22.0197 11.6092 22.0197C5.7312 22.0197 0.96582 17.2542 0.96582 11.3763C0.96582 5.49829 5.7312 0.73291 11.6092 0.73291C17.4872 0.73291 22.2526 5.49829 22.2526 11.3763Z" fill="#0A7BBA"/>
<path d="M17.9688 12.2322V16.6205H15.4249V12.5268C15.4249 11.4985 15.058 10.7963 14.1362 10.7963C13.434 10.7963 13.0162 11.2697 12.8318 11.7273C12.7642 11.8904 12.7475 12.1174 12.7475 12.3471V16.6206H10.2028C10.2028 16.6206 10.237 9.6865 10.2028 8.96866H12.7475V10.0534C12.7429 10.0617 12.7355 10.0699 12.7309 10.0783H12.7475V10.0534C13.0857 9.5328 13.6888 8.78883 15.0404 8.78883C16.7144 8.78883 17.9688 9.88289 17.9688 12.2322ZM7.54216 5.28052C6.67132 5.28052 6.10254 5.85211 6.10254 6.60251C6.10254 7.33712 6.65468 7.92438 7.50883 7.92438H7.52458C8.41207 7.92438 8.9642 7.33716 8.9642 6.60251C8.94752 5.85215 8.41207 5.28052 7.54216 5.28052ZM6.25355 16.6206H8.79651V8.96866H6.25355V16.6206Z" fill="#F2F2F2"/>
</g>
<defs>
<clipPath id="clip0_74_654">
<rect width="21.7976" height="21.7976" fill="white" transform="translate(0.710449 0.439941)"/>
</clipPath>
</defs>
</svg>
