<svg width="22" height="22" viewBox="0 0 22 22" fill="none" xmlns="http://www.w3.org/2000/svg">
<path d="M20.0104 0.125L1.85845 0.125C0.866598 0.125 0 0.838669 0 1.81887L0 20.0111C0 20.9967 0.866598 21.8749 1.85845 21.8749L20.0051 21.8749C21.0023 21.8749 21.7499 20.9908 21.7499 20.0111L21.7499 1.81887C21.7557 0.838669 21.0023 0.125 20.0104 0.125ZM6.74199 18.2546L3.62612 18.2546L3.62612 8.56669L6.74199 8.56669L6.74199 18.2546ZM5.29183 7.09371H5.2695C4.27231 7.09371 3.62661 6.3514 3.62661 5.42217C3.62661 4.47596 4.2893 3.75112 5.30883 3.75112C6.32835 3.75112 6.95221 4.47062 6.97454 5.42217C6.97406 6.3514 6.32835 7.09371 5.29183 7.09371ZM18.1296 18.2546L15.0138 18.2546L15.0138 12.9575C15.0138 11.6884 14.5603 10.8213 13.433 10.8213C12.5717 10.8213 12.062 11.4039 11.8353 11.9714C11.7503 12.1753 11.7275 12.453 11.7275 12.7366L11.7275 18.2546L8.61161 18.2546L8.61161 8.56669L11.7275 8.56669L11.7275 9.91489C12.1809 9.26919 12.8893 8.33997 14.5375 8.33997C16.5829 8.33997 18.1301 9.68817 18.1301 12.5948L18.1296 18.2546Z" fill="white"/>
</svg>
