<svg width="33" height="51" viewBox="0 0 33 51" fill="none" xmlns="http://www.w3.org/2000/svg">
<path d="M15 25.4091L1.7 15.4341C1.4839 15.2699 1.3084 15.0583 1.18703 14.8155C1.06566 14.5728 1.00167 14.3054 1 14.0341V6.15906C1 5.69493 1.18437 5.24981 1.51256 4.92162C1.84075 4.59343 2.28587 4.40906 2.75 4.40906H27.25C27.7141 4.40906 28.1593 4.59343 28.4874 4.92162C28.8156 5.24981 29 5.69493 29 6.15906V13.9466C28.9983 14.2179 28.9343 14.4853 28.813 14.728C28.6916 14.9708 28.5161 15.1824 28.3 15.3466L15 25.4091Z" fill="#C713A3" stroke="#1C1F35" stroke-width="2" stroke-linecap="round" stroke-linejoin="round"/>
<path d="M3 16.4091H27" stroke="#1C1F35" stroke-width="2" stroke-linecap="round" stroke-linejoin="round"/>
<path d="M15 25.4091L1.7 35.3841C1.4839 35.5482 1.3084 35.7598 1.18703 36.0026C1.06566 36.2453 1.00167 36.5127 1 36.7841V44.6591C1 45.1232 1.18437 45.5683 1.51256 45.8965C1.84075 46.2247 2.28587 46.4091 2.75 46.4091H27.25C27.7141 46.4091 28.1592 46.2247 28.4874 45.8965C28.8156 45.5683 29 45.1232 29 44.6591V36.8716C28.9983 36.6002 28.9343 36.3328 28.813 36.0901C28.6916 35.8473 28.5161 35.6357 28.3 35.4716L15 25.4091Z" stroke="#1C1F35" stroke-width="2" stroke-linecap="round" stroke-linejoin="round"/>
<path d="M15 34.4091V25.4091" stroke="#1C1F35" stroke-width="2" stroke-linecap="round" stroke-linejoin="round"/>
<path d="M32 4.40906L32 9.40906" stroke="#1C1F35" stroke-width="1.5" stroke-linecap="round" stroke-linejoin="round"/>
<path d="M4 38.4091L4 43.4091" stroke="#1C1F35" stroke-width="1.5" stroke-linecap="round" stroke-linejoin="round"/>
<path d="M16 1.40906L1 1.40906" stroke="#1C1F35" stroke-width="1.5" stroke-linecap="round" stroke-linejoin="round"/>
<path d="M28 49.4091H13" stroke="#1C1F35" stroke-width="1.5" stroke-linecap="round" stroke-linejoin="round"/>
<path d="M28.8524 31.6026L21 25.4091" stroke="#1C1F35" stroke-width="1.5" stroke-linecap="round" stroke-linejoin="round"/>
<path d="M19 13.4091L4 13.4091" stroke="white" stroke-width="1.5" stroke-linecap="round" stroke-linejoin="round"/>
</svg>
