<svg width="24" height="24" viewBox="0 0 24 24" fill="none" xmlns="http://www.w3.org/2000/svg">
<g clip-path="url(#clip0_495_4197)">
<g clip-path="url(#clip1_495_4197)">
<path d="M13 20L20 13" stroke="#404040" stroke-linecap="round" stroke-linejoin="round"/>
<path d="M13 20V14C13 13.7348 13.1054 13.4804 13.2929 13.2929C13.4804 13.1054 13.7348 13 14 13H20V6C20 5.46957 19.7893 4.96086 19.4142 4.58579C19.0391 4.21071 18.5304 4 18 4H6C5.46957 4 4.96086 4.21071 4.58579 4.58579C4.21071 4.96086 4 5.46957 4 6V18C4 18.5304 4.21071 19.0391 4.58579 19.4142C4.96086 19.7893 5.46957 20 6 20H13Z" stroke="#404040" stroke-linecap="round" stroke-linejoin="round"/>
</g>
</g>
<defs>
<clipPath id="clip0_495_4197">
<rect width="24" height="24" fill="white"/>
</clipPath>
<clipPath id="clip1_495_4197">
<rect width="24" height="24" fill="white"/>
</clipPath>
</defs>
</svg>
