<svg width="23" height="23" viewBox="0 0 23 23" fill="none" xmlns="http://www.w3.org/2000/svg">
<path d="M21.1601 20.3547C21.1856 20.5851 21.162 20.8184 21.0909 21.039C21.0199 21.2597 20.9029 21.4628 20.7477 21.6351C20.5926 21.8073 20.4027 21.9448 20.1906 22.0384C19.9785 22.132 19.749 22.1797 19.5172 22.1783H3.48291C3.25108 22.1797 3.02158 22.132 2.80949 22.0384C2.5974 21.9448 2.40753 21.8073 2.25236 21.6351C2.09718 21.4628 1.98022 21.2597 1.90916 21.039C1.8381 20.8184 1.81455 20.5851 1.84005 20.3547L3.28577 7.39258H19.7143L21.1601 20.3547Z" fill="#414D59"/>
<path d="M21.1601 20.3547C21.1856 20.5851 21.162 20.8184 21.0909 21.039C21.0199 21.2597 20.9029 21.4628 20.7477 21.6351C20.5926 21.8073 20.4027 21.9448 20.1906 22.0384C19.9785 22.132 19.749 22.1797 19.5172 22.1783H3.48291C3.25108 22.1797 3.02158 22.132 2.80949 22.0384C2.5974 21.9448 2.40753 21.8073 2.25236 21.6351C2.09718 21.4628 1.98022 21.2597 1.90916 21.039C1.8381 20.8184 1.81455 20.5851 1.84005 20.3547L3.28577 7.39258H19.7143L21.1601 20.3547Z" stroke="white" stroke-width="1.93786" stroke-linecap="round" stroke-linejoin="round"/>
<path d="M7.39258 7.39272V4.92843C7.39258 3.83915 7.82529 2.79448 8.59553 2.02424C9.36577 1.254 10.4104 0.821289 11.4997 0.821289C12.589 0.821289 13.6337 1.254 14.4039 2.02424C15.1741 2.79448 15.6069 3.83915 15.6069 4.92843V7.39272" stroke="white" stroke-width="1.93786" stroke-linecap="round" stroke-linejoin="round"/>
</svg>
