<svg width="26" height="23" viewBox="0 0 26 23" fill="none" xmlns="http://www.w3.org/2000/svg">
<path d="M25.4264 9.12061L23.0383 5.40652C22.9722 5.30367 22.8741 5.21807 22.7618 5.16699L13.0482 0.646707C12.8679 0.562829 12.6587 0.564496 12.4798 0.65117L2.75021 5.36727C2.64811 5.41674 2.55822 5.49443 2.49496 5.58761L0.106812 9.10732C-0.0992946 9.41111 0.0031316 9.84406 0.325845 10.0261L2.38446 11.1872V16.6053C2.38446 16.8446 2.51885 17.0642 2.73357 17.1759L12.4567 22.2337C12.6488 22.3335 12.8867 22.3316 13.0773 22.2287L22.8004 16.9692C23.1174 16.7977 23.2333 16.4055 23.0593 16.0931C22.8854 15.7807 22.4874 15.6664 22.1704 15.8378L13.417 20.5728V12.8482L15.1909 15.041C15.3874 15.2838 15.7552 15.3525 16.0279 15.1987L25.1987 10.026C25.5152 9.8475 25.6222 9.42504 25.4264 9.12061ZM12.7744 1.94644L21.044 5.79468L12.7564 10.2714L4.48071 5.96657L12.7744 1.94644ZM3.25536 6.78836L11.7576 11.211L9.65988 13.8039L1.58539 9.24965L3.25536 6.78836ZM3.6938 16.2162V11.9257L9.4967 15.1987C9.76929 15.3525 10.1375 15.2834 10.3337 15.041L12.1076 12.8482V20.5929L3.6938 16.2162ZM15.8646 13.8039L13.7592 11.2013L22.2613 6.60872L23.9539 9.24121L15.8646 13.8039Z" fill="white"/>
<path d="M22.4845 14.6622C22.9063 14.6622 23.2483 14.3251 23.2483 13.9092C23.2483 13.4934 22.9063 13.1562 22.4845 13.1562C22.0627 13.1562 21.7207 13.4934 21.7207 13.9092C21.7207 14.3251 22.0627 14.6622 22.4845 14.6622Z" fill="white"/>
</svg>
