<svg width="18" height="18" viewBox="0 0 18 18" fill="none" xmlns="http://www.w3.org/2000/svg">
<mask id="path-1-outside-1_612_95" maskUnits="userSpaceOnUse" x="4.98047" y="0" width="11" height="11" fill="black">
<rect fill="white" x="4.98047" width="11" height="11"/>
<path d="M10.5942 10.2274C11.8266 10.2274 12.9852 9.7475 13.8566 8.87606C15.6554 7.07719 15.6554 4.15019 13.8566 2.35131C12.9852 1.47991 11.8265 1 10.5942 1C9.36184 1 8.20322 1.47991 7.33181 2.35131C6.46037 3.22272 5.98047 4.38131 5.98047 5.61369C5.98047 6.84606 6.46037 8.00466 7.33181 8.87606C8.20322 9.7475 9.36181 10.2274 10.5942 10.2274ZM7.99472 3.01425C8.68906 2.31991 9.61225 1.9375 10.5942 1.9375C11.5762 1.9375 12.4993 2.31988 13.1937 3.01422C14.627 4.44759 14.627 6.77981 13.1937 8.21316C12.4993 8.9075 11.5762 9.28991 10.5942 9.28991C9.61225 9.28991 8.68906 8.90753 7.99472 8.21316C7.30038 7.51878 6.91797 6.59562 6.91797 5.61369C6.91797 4.63175 7.30041 3.70859 7.99472 3.01425Z"/>
</mask>
<path d="M10.5942 10.2274C11.8266 10.2274 12.9852 9.7475 13.8566 8.87606C15.6554 7.07719 15.6554 4.15019 13.8566 2.35131C12.9852 1.47991 11.8265 1 10.5942 1C9.36184 1 8.20322 1.47991 7.33181 2.35131C6.46037 3.22272 5.98047 4.38131 5.98047 5.61369C5.98047 6.84606 6.46037 8.00466 7.33181 8.87606C8.20322 9.7475 9.36181 10.2274 10.5942 10.2274ZM7.99472 3.01425C8.68906 2.31991 9.61225 1.9375 10.5942 1.9375C11.5762 1.9375 12.4993 2.31988 13.1937 3.01422C14.627 4.44759 14.627 6.77981 13.1937 8.21316C12.4993 8.9075 11.5762 9.28991 10.5942 9.28991C9.61225 9.28991 8.68906 8.90753 7.99472 8.21316C7.30038 7.51878 6.91797 6.59562 6.91797 5.61369C6.91797 4.63175 7.30041 3.70859 7.99472 3.01425Z" fill="#781D66"/>
<path d="M13.8566 8.87606L13.7859 8.80535L13.7858 8.80535L13.8566 8.87606ZM13.8566 2.35131L13.9273 2.2806L13.9273 2.2806L13.8566 2.35131ZM7.33181 2.35131L7.40252 2.42202L7.40252 2.42202L7.33181 2.35131ZM7.33181 8.87606L7.40252 8.80535L7.40252 8.80535L7.33181 8.87606ZM7.99472 3.01425L7.92401 2.94354L7.92401 2.94354L7.99472 3.01425ZM13.1937 3.01422L13.2644 2.94351L13.2644 2.94351L13.1937 3.01422ZM13.1937 8.21316L13.2644 8.28387L13.2644 8.28387L13.1937 8.21316ZM10.5942 10.3274C11.8531 10.3274 13.0371 9.83696 13.9273 8.94677L13.7858 8.80535C12.9332 9.65804 11.8 10.1274 10.5942 10.1274V10.3274ZM13.9273 8.94677C15.7652 7.10885 15.7652 4.11853 13.9273 2.2806L13.7859 2.42202C15.5456 4.18185 15.5456 7.04553 13.7859 8.80535L13.9273 8.94677ZM13.9273 2.2806C13.0371 1.39044 11.8531 0.9 10.5942 0.9V1.1C11.8 1.1 12.9332 1.56937 13.7859 2.42202L13.9273 2.2806ZM10.5942 0.9C9.33532 0.9 8.15126 1.39044 7.2611 2.2806L7.40252 2.42202C8.25518 1.56937 9.38836 1.1 10.5942 1.1V0.9ZM7.2611 2.2806C6.37091 3.17076 5.88047 4.35479 5.88047 5.61369H6.08047C6.08047 4.40783 6.54984 3.27468 7.40252 2.42202L7.2611 2.2806ZM5.88047 5.61369C5.88047 6.87258 6.37091 8.05661 7.2611 8.94677L7.40252 8.80535C6.54984 7.9527 6.08047 6.81954 6.08047 5.61369H5.88047ZM7.2611 8.94677C8.15126 9.83696 9.33529 10.3274 10.5942 10.3274V10.1274C9.38833 10.1274 8.25518 9.65804 7.40252 8.80535L7.2611 8.94677ZM8.06543 3.08496C8.74102 2.40937 9.63877 2.0375 10.5942 2.0375V1.8375C9.58573 1.8375 8.63711 2.23044 7.92401 2.94354L8.06543 3.08496ZM10.5942 2.0375C11.5496 2.0375 12.4474 2.40934 13.123 3.08493L13.2644 2.94351C12.5513 2.23041 11.6027 1.8375 10.5942 1.8375V2.0375ZM13.123 3.08493C14.5172 4.47925 14.5172 6.74816 13.123 8.14245L13.2644 8.28387C14.7368 6.81147 14.7368 4.41594 13.2644 2.94351L13.123 3.08493ZM13.123 8.14245C12.4474 8.81804 11.5496 9.18991 10.5942 9.18991V9.38991C11.6027 9.38991 12.5513 8.99696 13.2644 8.28387L13.123 8.14245ZM10.5942 9.18991C9.63877 9.18991 8.74102 8.81807 8.06543 8.14245L7.92401 8.28387C8.63711 8.997 9.58573 9.38991 10.5942 9.38991V9.18991ZM8.06543 8.14245C7.38984 7.46682 7.01797 6.5691 7.01797 5.61369H6.81797C6.81797 6.62215 7.21091 7.57074 7.92401 8.28387L8.06543 8.14245ZM7.01797 5.61369C7.01797 4.65828 7.38987 3.76055 8.06543 3.08496L7.92401 2.94354C7.21094 3.65664 6.81797 4.60522 6.81797 5.61369H7.01797Z" fill="#781D66" mask="url(#path-1-outside-1_612_95)"/>
<path d="M10.2398 4.68105L10.2398 4.68106C10.4392 4.83746 10.8091 4.98078 11.1539 5.10266C11.8399 5.34512 12.2234 5.98327 12.1048 6.68897C12.02 7.19295 11.6576 7.70339 11.0886 7.90378V8.02056C11.0886 8.30704 10.8564 8.53931 10.5699 8.53931C10.2834 8.53931 10.0511 8.30704 10.0511 8.02056V7.96042C9.8022 7.91853 9.58028 7.82701 9.29616 7.64115C9.05639 7.48431 8.98917 7.16282 9.14603 6.923L9.18785 6.95035L9.14603 6.923C9.30286 6.68324 9.62441 6.616 9.86412 6.77287C9.86413 6.77287 9.86413 6.77287 9.86413 6.77287L10.2398 4.68105ZM10.2398 4.68105C10.2342 4.67662 10.2222 4.66067 10.2147 4.62752C10.2077 4.59606 10.206 4.55429 10.2151 4.50603L10.2151 4.50602M10.2398 4.68105L10.2151 4.50602M10.2151 4.50602C10.2246 4.45537 10.2658 4.30782 10.4107 4.26415L10.2151 4.50602ZM11.6102 3.51457L11.6102 3.51457C11.8396 3.68613 11.8866 4.01121 11.715 4.24068C11.715 4.24068 11.715 4.24068 11.715 4.24068L11.675 4.21074L11.6102 3.51457ZM11.6102 3.51457C11.5312 3.45551 11.3488 3.33548 11.0886 3.26013V3.20605C11.0886 2.91957 10.8564 2.6873 10.5699 2.6873C10.2834 2.6873 10.0511 2.91957 10.0511 3.20605V3.29123C9.61062 3.44815 9.28584 3.83483 9.19555 4.31389L9.19555 4.31389M11.6102 3.51457L9.19555 4.31389M9.19555 4.31389C9.10829 4.77702 9.26073 5.23162 9.59955 5.49737M9.19555 4.31389L9.59955 5.49737M9.59955 5.49737C9.91977 5.74851 10.3733 5.9271 10.8082 6.08082M9.59955 5.49737L10.8082 6.08082M10.8082 6.08082C10.9561 6.1331 11.0268 6.2131 11.0602 6.29082M10.8082 6.08082L11.0602 6.29082M11.0602 6.29082C11.0944 6.37055 11.0921 6.45447 11.0817 6.51693M11.0602 6.29082L11.0817 6.51693M11.0817 6.51693C11.0462 6.72767 10.8698 6.95266 10.5664 6.95468L11.0817 6.51693ZM10.9889 4.34557L10.9889 4.34557L10.4107 4.26415C10.7141 4.17279 10.9173 4.29205 10.9889 4.34557Z" fill="#781D66" stroke="#781D66" stroke-width="0.1"/>
<path d="M14.322 10.7673C14.6238 10.4663 15.0248 10.3006 15.451 10.3006C15.878 10.3006 16.2797 10.467 16.5816 10.7689C16.8836 11.0709 17.05 11.4725 17.05 11.8995C17.05 12.3265 16.8835 12.7283 16.5816 13.0302L12.9712 16.6406L12.9358 16.6053L12.9712 16.6406C12.7073 16.9045 12.3562 17.05 11.983 17.05H8.49016C8.34105 17.05 8.19357 17.0262 8.05195 16.9795L8.06763 16.932L8.05195 16.9795L5.01899 15.9779H3.86082C3.8194 16.2229 3.60665 16.4096 3.34978 16.4096H1.46875C1.18226 16.4096 0.95 16.1774 0.95 15.8909V11.1316C0.95 10.8451 1.18226 10.6129 1.46875 10.6129H3.34975C3.61375 10.6129 3.83107 10.8101 3.86371 11.0651H4.626C4.82119 11.0651 5.01921 11.0156 5.19841 10.9214C6.65955 10.1541 8.44872 10.3998 9.65054 11.5327L9.76429 11.6399L11.0233 11.6438L11.0233 11.6438L11.0231 11.6938C11.654 11.6954 12.2014 12.0622 12.4645 12.5932L14.322 10.7673ZM14.322 10.7673C14.3219 10.7673 14.3219 10.7674 14.3218 10.7674L12.502 12.5564L14.322 10.7673ZM5.10241 14.9404H3.86853V12.1026H4.62606C4.98913 12.1026 5.35381 12.0118 5.68084 11.84C6.74988 11.2785 8.05924 11.4585 8.93899 12.2877L9.20192 12.5356C9.29775 12.6259 9.42443 12.6764 9.55614 12.6768L11.0204 12.6813L11.0204 12.6813C11.364 12.6821 11.6436 12.9625 11.6436 13.306V13.6666H8.94741C8.66092 13.6666 8.42866 13.8988 8.42866 14.1853C8.42866 14.4718 8.66092 14.7041 8.94741 14.7041H12.1623C12.4488 14.7041 12.6811 14.4718 12.6811 14.1853V13.8351L15.0508 11.5056L15.0511 11.5053L15.0523 11.5042L15.054 11.5025C15.1601 11.3964 15.3009 11.3381 15.451 11.3381C15.6011 11.3381 15.7419 11.3964 15.8481 11.5025C15.9542 11.6086 16.0125 11.7494 16.0125 11.8995C16.0125 12.0496 15.9542 12.1905 15.8481 12.2966L12.2376 15.907C12.1695 15.9751 12.0793 16.0125 11.983 16.0125H8.49019C8.4518 16.0125 8.41381 16.0064 8.3773 15.9943L5.26505 14.9666L5.26505 14.9666C5.21255 14.9492 5.15767 14.9404 5.10241 14.9404ZM1.9875 11.6504H2.83103V15.3721H1.9875V11.6504Z" fill="#781D66" stroke="#781D66" stroke-width="0.1"/>
</svg>
