<svg width="26" height="26" viewBox="0 0 26 26" fill="none" xmlns="http://www.w3.org/2000/svg">
<path d="M9.75 10.834C9.75 11.6959 10.0924 12.5226 10.7019 13.1321C11.3114 13.7416 12.138 14.084 13 14.084C13.862 14.084 14.6886 13.7416 15.2981 13.1321C15.9076 12.5226 16.25 11.6959 16.25 10.834C16.25 9.97203 15.9076 9.14538 15.2981 8.53589C14.6886 7.92639 13.862 7.58398 13 7.58398C12.138 7.58398 11.3114 7.92639 10.7019 8.53589C10.0924 9.14538 9.75 9.97203 9.75 10.834Z" stroke="white" stroke-width="1.5"/>
<path d="M4.73926 20.0098C7.14017 18.2662 10.0324 17.3293 12.9997 17.334C16.0861 17.334 18.9396 18.3263 21.2601 20.0098" stroke="white" stroke-width="1.5"/>
<path d="M22.0494 7.04102C21.0633 5.54207 19.7201 4.31177 18.1405 3.46081C16.5609 2.60984 14.7945 2.1649 13.0003 2.16602C7.01708 2.16602 2.16699 7.0161 2.16699 12.9994C2.16699 18.9826 7.01708 23.8327 13.0003 23.8327C18.9836 23.8327 23.8337 18.9826 23.8337 12.9994C23.8337 12.2573 23.7589 11.5325 23.617 10.8327" stroke="white" stroke-width="1.5"/>
<path d="M22.2083 2.70898V7.04232H17.875" stroke="white" stroke-width="1.5"/>
</svg>
