<svg width="21" height="25" viewBox="0 0 21 25" fill="none" xmlns="http://www.w3.org/2000/svg">
<path d="M16.5581 2.45965H14.506L14.2029 1.71186C13.9307 1.03582 13.2766 0.598633 12.5387 0.598633H7.61771C6.87974 0.598633 6.22567 1.03582 5.95342 1.71102L5.65036 2.45965H3.59825C1.61463 2.45965 0 4.05058 0 6.00697V20.5144C0 22.47 1.61463 24.0617 3.59825 24.0617H16.559C18.5426 24.0617 20.1572 22.47 20.1572 20.5144V6.00697C20.1564 4.05058 18.5426 2.45965 16.5581 2.45965ZM6.69225 3.9839L7.38485 2.27312C7.42252 2.1786 7.51412 2.11783 7.61771 2.11783H12.5387C12.6423 2.11783 12.7339 2.1786 12.7715 2.27397L13.4641 3.98475C13.5078 4.09025 13.4675 4.17465 13.4393 4.21516C13.4119 4.25567 13.3477 4.32404 13.2313 4.32404H6.92597C6.80954 4.32404 6.74533 4.25567 6.71794 4.21516C6.68883 4.17465 6.64859 4.09025 6.69225 3.9839ZM18.6154 20.5144C18.6154 21.6327 17.6933 22.5417 16.559 22.5417H3.59825C2.4639 22.5417 1.54186 21.6327 1.54186 20.5144V6.00697C1.54186 4.88867 2.4639 3.97884 3.59825 3.97884H5.14696C5.12556 4.35948 5.21802 4.74181 5.44147 5.06675C5.77535 5.5529 6.33012 5.84239 6.92512 5.84239H13.2304C13.8254 5.84239 14.381 5.55205 14.7149 5.06591C14.9375 4.74097 15.03 4.35864 15.0086 3.978H16.5573C17.6916 3.978 18.6137 4.88783 18.6137 6.00612V20.5144H18.6154Z" fill="white"/>
<path d="M14.8072 11.709H5.35058C4.92509 11.709 4.58008 12.0491 4.58008 12.4686C4.58008 12.888 4.92509 13.2282 5.35058 13.2282H14.8081C15.2336 13.2282 15.5786 12.888 15.5786 12.4686C15.5786 12.0491 15.2336 11.709 14.8072 11.709Z" fill="white"/>
<path d="M12.662 15.1572H7.49707C7.07158 15.1572 6.72656 15.4974 6.72656 15.9168C6.72656 16.3363 7.07158 16.6764 7.49707 16.6764H12.662C13.0875 16.6764 13.4325 16.3363 13.4325 15.9168C13.4325 15.4974 13.0875 15.1572 12.662 15.1572Z" fill="white"/>
</svg>
