<svg width="23" height="24" viewBox="0 0 23 24" fill="none" xmlns="http://www.w3.org/2000/svg">
<path d="M19.6309 12.4743H17.3795C17.0731 12.4743 16.7764 12.5156 16.4941 12.5915C15.9371 11.5121 14.8001 10.7705 13.4898 10.7705H9.51019C8.19995 10.7705 7.06289 11.5121 6.50595 12.5915C6.22361 12.5156 5.92695 12.4743 5.62053 12.4743H3.36914C1.5114 12.4743 0 13.9643 0 15.7957V19.3438C0 20.4427 0.906838 21.3367 2.02148 21.3367H20.9785C22.0932 21.3367 23 20.4427 23 19.3438V15.7957C23 13.9643 21.4886 12.4743 19.6309 12.4743ZM6.14105 14.092V20.0082H2.02148C1.64994 20.0082 1.34766 19.7102 1.34766 19.3439V15.7958C1.34766 14.6969 2.25449 13.8029 3.36914 13.8029H5.62053C5.80346 13.8029 5.98058 13.8274 6.14922 13.8725C6.14437 13.9452 6.14105 14.0183 6.14105 14.092ZM15.5113 20.0082H7.4887V14.092C7.4887 12.9931 8.39554 12.0991 9.51019 12.0991H13.4898C14.6045 12.0991 15.5113 12.9931 15.5113 14.092V20.0082ZM21.6523 19.3439C21.6523 19.7102 21.3501 20.0082 20.9785 20.0082H16.859V14.092C16.859 14.0182 16.8556 13.9451 16.8508 13.8725C17.0194 13.8274 17.1965 13.8029 17.3795 13.8029H19.6309C20.7455 13.8029 21.6523 14.6969 21.6523 15.7957V19.3439Z" fill="white"/>
<path d="M4.49582 6.20117C2.84498 6.20117 1.50195 7.52519 1.50195 9.15266C1.50191 10.7801 2.84498 12.1041 4.49582 12.1041C6.14661 12.1041 7.48968 10.7801 7.48968 9.15266C7.48968 7.52519 6.14665 6.20117 4.49582 6.20117ZM4.49577 10.7756C3.58803 10.7756 2.84956 10.0475 2.84956 9.15266C2.84956 8.25777 3.58803 7.52975 4.49577 7.52975C5.40351 7.52975 6.14198 8.25777 6.14198 9.15266C6.14198 10.0475 5.40351 10.7756 4.49577 10.7756Z" fill="white"/>
<path d="M11.4998 2.53516C9.29427 2.53516 7.5 4.30403 7.5 6.47829C7.5 8.65256 9.29427 10.4214 11.4998 10.4214C13.7052 10.4214 15.4995 8.65256 15.4995 6.47829C15.4995 4.30407 13.7052 2.53516 11.4998 2.53516ZM11.4998 9.09285C10.0374 9.09285 8.84766 7.91998 8.84766 6.47829C8.84766 5.03665 10.0374 3.86374 11.4998 3.86374C12.9621 3.86374 14.1519 5.03661 14.1519 6.47829C14.1519 7.91998 12.9621 9.09285 11.4998 9.09285Z" fill="white"/>
<path d="M18.5056 6.20117C16.8548 6.20117 15.5117 7.52519 15.5117 9.15266C15.5118 10.7801 16.8548 12.1041 18.5056 12.1041C20.1564 12.1041 21.4994 10.7801 21.4994 9.15266C21.4994 7.52519 20.1564 6.20117 18.5056 6.20117ZM18.5056 10.7756C17.5979 10.7756 16.8594 10.0475 16.8594 9.15266C16.8594 8.25777 17.5979 7.52975 18.5056 7.52975C19.4133 7.52975 20.1518 8.25777 20.1518 9.15266C20.1518 10.0475 19.4133 10.7756 18.5056 10.7756Z" fill="white"/>
</svg>
