<svg width="21" height="21" viewBox="0 0 21 21" fill="none" xmlns="http://www.w3.org/2000/svg">
<path d="M10.351 10.1158C11.7408 10.1158 12.944 9.61734 13.9274 8.63393C14.9105 7.65068 15.4091 6.44761 15.4091 5.05773C15.4091 3.66833 14.9107 2.4651 13.9272 1.48153C12.9438 0.498435 11.7406 0 10.351 0C8.96114 0 7.75807 0.498435 6.77482 1.48169C5.79156 2.46494 5.29297 3.66817 5.29297 5.05773C5.29297 6.44761 5.79156 7.65084 6.77482 8.63409C7.75839 9.61718 8.96162 10.1158 10.351 10.1158ZM7.64512 2.35182C8.39958 1.59736 9.28462 1.23063 10.351 1.23063C11.4173 1.23063 12.3025 1.59736 13.0571 2.35182C13.8116 3.10645 14.1785 3.99165 14.1785 5.05773C14.1785 6.12413 13.8116 7.00917 13.0571 7.76379C12.3025 8.51842 11.4173 8.88515 10.351 8.88515C9.28494 8.88515 8.3999 8.51826 7.64512 7.76379C6.8905 7.00933 6.5236 6.12413 6.5236 5.05773C6.5236 3.99165 6.8905 3.10645 7.64512 2.35182Z" fill="#656565"/>
<path d="M19.2006 16.1482C19.1722 15.739 19.1149 15.2926 19.0304 14.8213C18.9452 14.3464 18.8355 13.8974 18.7041 13.4871C18.5682 13.063 18.3838 12.6442 18.1555 12.2429C17.9189 11.8263 17.6407 11.4636 17.3286 11.1651C17.0023 10.8528 16.6027 10.6018 16.1406 10.4187C15.6801 10.2365 15.1699 10.1442 14.624 10.1442C14.4096 10.1442 14.2023 10.2322 13.8019 10.4928C13.5555 10.6535 13.2673 10.8394 12.9456 11.0449C12.6705 11.2202 12.2978 11.3844 11.8375 11.5331C11.3884 11.6784 10.9324 11.7521 10.4822 11.7521C10.0323 11.7521 9.57635 11.6784 9.12694 11.5331C8.66711 11.3846 8.29429 11.2204 8.01968 11.0451C7.701 10.8415 7.41261 10.6556 7.16251 10.4927C6.76245 10.232 6.55513 10.144 6.34076 10.144C5.79474 10.144 5.28461 10.2365 4.8243 10.4188C4.36256 10.6016 3.96281 10.8527 3.63613 11.1653C3.32403 11.4639 3.04589 11.8265 2.80941 12.2429C2.58142 12.6442 2.39685 13.0629 2.26099 13.4873C2.12977 13.8976 2.02002 14.3464 1.93478 14.8213C1.85019 15.292 1.79299 15.7385 1.76463 16.1487C1.73676 16.5497 1.72266 16.967 1.72266 17.3887C1.72266 18.4849 2.07113 19.3724 2.7583 20.0269C3.43698 20.6727 4.33484 21.0002 5.42704 21.0002H15.5387C16.6306 21.0002 17.5284 20.6727 18.2073 20.0269C18.8946 19.3729 19.2431 18.4851 19.2431 17.3886C19.2429 16.9654 19.2286 16.5481 19.2006 16.1482ZM17.3587 19.1353C16.9103 19.5621 16.3149 19.7696 15.5385 19.7696H5.42704C4.65047 19.7696 4.0551 19.5621 3.60681 19.1354C3.16702 18.7168 2.95329 18.1453 2.95329 17.3887C2.95329 16.9952 2.96626 16.6067 2.99222 16.2337C3.01753 15.8678 3.06928 15.4658 3.14603 15.0387C3.22181 14.6168 3.31826 14.2209 3.43298 13.8625C3.54305 13.5189 3.69317 13.1786 3.87934 12.8507C4.05702 12.5383 4.26146 12.2703 4.48705 12.0543C4.69805 11.8523 4.96401 11.6869 5.2774 11.5629C5.56723 11.4482 5.89295 11.3854 6.24655 11.376C6.28965 11.3989 6.36639 11.4426 6.49072 11.5237C6.74371 11.6885 7.0353 11.8766 7.35766 12.0825C7.72103 12.3142 8.18919 12.5234 8.7485 12.704C9.32032 12.8889 9.90351 12.9828 10.4824 12.9828C11.0612 12.9828 11.6446 12.8889 12.2161 12.7042C12.7759 12.5233 13.2439 12.3142 13.6077 12.0822C13.9376 11.8713 14.221 11.6887 14.474 11.5237C14.5984 11.4428 14.6751 11.3989 14.7182 11.376C15.072 11.3854 15.3977 11.4482 15.6877 11.5629C16.0009 11.6869 16.2669 11.8524 16.4779 12.0543C16.7035 12.2701 16.9079 12.5382 17.0856 12.8509C17.2719 13.1786 17.4222 13.519 17.5321 13.8624C17.647 14.2212 17.7436 14.617 17.8192 15.0385C17.8958 15.4665 17.9477 15.8686 17.973 16.2339V16.2342C17.9991 16.6058 18.0123 16.9941 18.0124 17.3887C18.0123 18.1454 17.7985 18.7168 17.3587 19.1353Z" fill="#656565"/>
</svg>
