<svg width="28" height="29" viewBox="0 0 28 29" fill="none" xmlns="http://www.w3.org/2000/svg">
<g clip-path="url(#clip0_1283_517)">
<path d="M26.4596 1.59523C25.4331 0.53181 24.1964 0 22.7503 0H5.25018C3.80413 0 2.56738 0.53181 1.54044 1.59523C0.513686 2.65885 0.000213623 3.93971 0.000213623 5.43747V23.5624C0.000213623 25.06 0.513686 26.341 1.54044 27.4046C2.56738 28.4683 3.80413 29.0001 5.25018 29.0001H22.7501C24.1962 29.0001 25.4329 28.4683 26.4594 27.4046C27.4864 26.341 27.9998 25.0601 27.9998 23.5624V5.43747C27.9998 3.93971 27.4863 2.65865 26.4596 1.59523ZM22.9319 22.0127C22.6767 22.5916 22.1025 23.0953 21.2094 23.5235C20.3162 23.9516 19.523 24.1657 18.8301 24.1657C18.6356 24.1657 18.429 24.1502 18.2103 24.1187C17.9915 24.087 17.8065 24.0557 17.6546 24.0242C17.5028 23.9928 17.302 23.9362 17.0531 23.8543C16.8038 23.7727 16.6243 23.7095 16.5153 23.6656C16.4057 23.6217 16.2053 23.543 15.9138 23.4297C15.6221 23.3161 15.4396 23.2469 15.3672 23.2222C13.3741 22.4666 11.4263 21.1042 9.52454 19.1345C7.62274 17.1643 6.30714 15.1475 5.57792 13.0836C5.55378 13.008 5.48693 12.8191 5.37743 12.5172C5.26812 12.2153 5.19195 12.0075 5.14943 11.8943C5.10716 11.781 5.04631 11.5953 4.96727 11.3375C4.88829 11.0794 4.83376 10.8719 4.8033 10.7144C4.77278 10.5572 4.74265 10.3654 4.71219 10.1388C4.6818 9.91216 4.66667 9.6979 4.66667 9.49667C4.66667 8.77917 4.87335 7.95791 5.28664 7.03277C5.69987 6.10775 6.18589 5.51305 6.74501 5.24867C7.38912 4.97165 8.00283 4.83318 8.58622 4.83318C8.71973 4.83318 8.8171 4.84588 8.87769 4.871C8.93854 4.89646 9.03884 5.00948 9.17867 5.21091C9.3185 5.41234 9.47033 5.66713 9.63436 5.97556C9.79845 6.28405 9.95948 6.58302 10.1174 6.8724C10.2754 7.16185 10.4274 7.44806 10.5733 7.73149C10.7191 8.01445 10.8102 8.19406 10.8466 8.26931C10.8831 8.3326 10.9621 8.45196 11.0835 8.62833C11.205 8.80443 11.2963 8.96155 11.357 9.10016C11.4177 9.23863 11.4481 9.37083 11.4481 9.49667C11.4481 9.68573 11.3234 9.91533 11.0743 10.1857C10.8251 10.4564 10.5517 10.7051 10.2539 10.9317C9.95609 11.1584 9.68276 11.4007 9.43362 11.6588C9.18467 11.9166 9.05998 12.1274 9.05998 12.2911C9.05998 12.3792 9.08124 12.483 9.12383 12.6026C9.16635 12.7224 9.20587 12.8199 9.24233 12.8953C9.27879 12.9708 9.33663 13.0778 9.41549 13.2164C9.49447 13.355 9.54625 13.4431 9.57038 13.4809C10.2387 14.727 11.0075 15.8 11.8762 16.7001C12.7453 17.6003 13.7812 18.3962 14.9845 19.0885C15.0207 19.1139 15.1059 19.1673 15.2402 19.2492C15.3737 19.3307 15.4772 19.3904 15.55 19.4282C15.623 19.466 15.7169 19.507 15.8325 19.5507C15.9482 19.5946 16.0484 19.6167 16.1339 19.6167C16.3277 19.6167 16.5952 19.4092 16.9358 18.9939C17.276 18.5782 17.6225 18.1661 17.975 17.757C18.3272 17.3482 18.6125 17.1437 18.8317 17.1437C18.9532 17.1437 19.0805 17.175 19.2147 17.2379C19.3485 17.3008 19.5001 17.3954 19.6701 17.5212C19.8405 17.6475 19.9559 17.729 20.0167 17.7672L20.9824 18.3142C21.6266 18.6668 22.1643 18.9782 22.5959 19.2489C23.0274 19.5195 23.2614 19.7051 23.2979 19.8056C23.3221 19.8685 23.334 19.9695 23.334 20.1079C23.3335 20.7116 23.1997 21.3473 22.9319 22.0127Z" fill="#4CAF50"/>
</g>
<defs>
<clipPath id="clip0_1283_517">
<rect width="28" height="29" fill="white"/>
</clipPath>
</defs>
</svg>
