<svg width="15" height="19" viewBox="0 0 15 19" fill="none" xmlns="http://www.w3.org/2000/svg">
<path d="M4.11329 5.44924H2.71377C2.66503 5.44924 2.62338 5.48785 2.61967 5.53637L2.61965 5.53665L1.86031 15.1054C1.86031 15.1054 1.8603 15.1055 1.8603 15.1055C1.82436 15.5741 1.9806 16.0225 2.30091 16.3683C2.62125 16.7141 3.05639 16.9042 3.52777 16.9042H11.471C11.9423 16.9042 12.3775 16.7141 12.6978 16.3683C13.0181 16.0225 13.1744 15.5742 13.1384 15.1043L4.11329 5.44924ZM4.11329 5.44924V6.5756C4.11329 6.90578 4.38098 7.17348 4.71117 7.17348C5.04135 7.17348 5.30905 6.90579 5.30905 6.5756V5.44924H9.68968V6.5756C9.68968 6.90578 9.95738 7.17348 10.2876 7.17348C10.6178 7.17348 10.8854 6.90578 10.8854 6.5756V5.44924H12.285C12.3332 5.44924 12.3753 5.48743 12.3792 5.53773L12.3792 5.53798L13.1384 15.104L4.11329 5.44924ZM14.3305 15.0113L14.3305 15.011L13.5714 5.44495L13.4716 5.45261L13.5713 5.44469L13.5713 5.44482C13.52 4.77647 12.9553 4.25348 12.285 4.25348H10.8853C10.8677 2.40124 9.35568 0.9 7.49937 0.9C5.64305 0.9 4.131 2.40124 4.11344 4.25348H2.71377C2.04348 4.25348 1.47874 4.77635 1.42752 5.44352C1.42752 5.44357 1.42752 5.44362 1.42751 5.44367L0.668111 15.0123L0.668091 15.0126C0.607191 15.8065 0.88253 16.5967 1.42361 17.1809C1.96468 17.765 2.73147 18.1 3.52774 18.1H11.471C12.2672 18.1 13.034 17.7651 13.5751 17.1809C14.1162 16.5967 14.3915 15.8065 14.3305 15.0113ZM10.8854 4.35348H10.7854V4.28608L10.8854 4.35348ZM5.30929 4.25348C5.32678 3.0608 6.30263 2.09576 7.49937 2.09576C8.6961 2.09576 9.67195 3.06083 9.68945 4.25348H5.30929Z" fill="#781D66" stroke="#781D66" stroke-width="0.2"/>
</svg>
