<svg width="19" height="19" viewBox="0 0 19 19" fill="none" xmlns="http://www.w3.org/2000/svg">
<g clip-path="url(#clip0_399_1258)">
<path d="M15.0115 4.02073C14.9404 3.94946 14.8559 3.89292 14.7629 3.85434C14.6699 3.81576 14.5702 3.7959 14.4695 3.7959C14.3688 3.7959 14.2691 3.81576 14.1761 3.85434C14.0831 3.89292 13.9987 3.94946 13.9275 4.02073L5.5552 12.3854V8.08773C5.5552 7.66489 5.20923 7.31892 4.78639 7.31892C4.36354 7.31892 4.01758 7.66489 4.01758 8.08773V14.2382C4.01758 14.661 4.36354 15.007 4.78639 15.007H10.9369C11.3597 15.007 11.7057 14.661 11.7057 14.2382C11.7057 13.8154 11.3597 13.4694 10.9369 13.4694H6.63922L15.0115 5.09706C15.3037 4.80492 15.3037 4.31288 15.0115 4.02073Z" fill="#781D66"/>
</g>
<defs>
<clipPath id="clip0_399_1258">
<rect width="18.4514" height="18.4514" fill="white" transform="translate(0.173828 0.400391)"/>
</clipPath>
</defs>
</svg>
