<svg width="17" height="17" viewBox="0 0 17 17" fill="none" xmlns="http://www.w3.org/2000/svg">
<path d="M8.85085 1.02099L8.85085 1.02099L8.85037 1.02075L8.84762 1.01938L8.84747 1.0193C8.52388 0.858195 8.13967 0.861796 7.81911 1.02894L7.81911 1.02894L7.81846 1.02928L4.98121 2.53508C4.95546 2.54627 4.93091 2.55942 4.90756 2.57418L1.50721 4.37885C1.50713 4.37889 1.50705 4.37894 1.50697 4.37898C1.13267 4.57507 0.9 4.95945 0.9 5.38215V11.6189C0.9 12.0416 1.13265 12.4259 1.50691 12.622C1.50701 12.6221 1.50711 12.6221 1.50721 12.6222L7.81565 15.9703L7.81601 15.9705L7.81885 15.972L7.81914 15.9721C7.98271 16.0574 8.16283 16.1001 8.34282 16.1001C8.51573 16.1001 8.68885 16.0607 8.84748 15.9817L8.8481 15.9814L15.4741 12.6241C15.4742 12.6241 15.4743 12.624 15.4743 12.624C15.8601 12.431 16.1 12.0428 16.1 11.6113V5.3898C16.1 4.95829 15.8601 4.57003 15.4743 4.37703C15.4742 4.37699 15.4742 4.37696 15.4741 4.37692L8.85085 1.02099ZM7.79719 14.7394L2.01104 11.6685L2.01068 11.6683L2.00784 11.6668L2.0076 11.6667C1.98953 11.6572 1.97858 11.6391 1.97858 11.6189V5.94352L7.79719 8.97763V14.7394ZM15.0214 11.6112V11.6113C15.0214 11.6321 15.0102 11.6502 14.9915 11.6595L14.9909 11.6598L8.8758 14.7582V8.98457L11.5582 7.64912V8.99217C11.5582 9.29001 11.7997 9.53148 12.0975 9.53148C12.3953 9.53148 12.6368 9.29001 12.6368 8.99217V7.11212L15.0214 5.92497V11.6112ZM6.34953 3.02995L8.31869 1.98485C8.33337 1.9775 8.35108 1.97734 8.36594 1.98446C8.36608 1.98452 8.36623 1.98459 8.36637 1.98466L14.3877 5.0356L12.1989 6.12531L6.34953 3.02995ZM5.19819 3.64107L11.0107 6.71687L8.34217 8.04539L2.57041 5.0357L5.19819 3.64107Z" fill="#781D66" stroke="#781D66" stroke-width="0.2"/>
</svg>
