<svg width="29" height="29" viewBox="0 0 29 29" fill="none" xmlns="http://www.w3.org/2000/svg">
<g clip-path="url(#clip0_399_1138)">
<path d="M27.9643 21.75V25.8929C27.9643 26.4422 27.746 26.9691 27.3576 27.3576C26.9691 27.746 26.4422 27.9643 25.8929 27.9643H21.75" stroke="white" stroke-width="1.93786" stroke-linecap="round" stroke-linejoin="round"/>
<path d="M21.75 1.03613H25.8929C26.4422 1.03613 26.9691 1.25437 27.3576 1.64284C27.746 2.03131 27.9643 2.55818 27.9643 3.10756V7.25042" stroke="white" stroke-width="1.93786" stroke-linecap="round" stroke-linejoin="round"/>
<path d="M1.03516 7.25042V3.10756C1.03516 2.55818 1.2534 2.03131 1.64186 1.64284C2.03033 1.25437 2.55721 1.03613 3.10658 1.03613H7.24944" stroke="white" stroke-width="1.93786" stroke-linecap="round" stroke-linejoin="round"/>
<path d="M7.24944 27.9643H3.10658C2.55721 27.9643 2.03033 27.746 1.64186 27.3576C1.2534 26.9691 1.03516 26.4422 1.03516 25.8929V21.75" stroke="white" stroke-width="1.93786" stroke-linecap="round" stroke-linejoin="round"/>
<path d="M6.73242 12.9467C6.73242 13.7628 6.89316 14.5709 7.20546 15.3248C7.51775 16.0788 7.97549 16.7638 8.55254 17.3409C9.12959 17.9179 9.81465 18.3757 10.5686 18.688C11.3226 19.0003 12.1306 19.161 12.9467 19.161C13.7628 19.161 14.5709 19.0003 15.3248 18.688C16.0788 18.3757 16.7638 17.9179 17.3409 17.3409C17.9179 16.7638 18.3757 16.0788 18.688 15.3248C19.0003 14.5709 19.161 13.7628 19.161 12.9467C19.161 12.1306 19.0003 11.3226 18.688 10.5686C18.3757 9.81465 17.9179 9.12959 17.3409 8.55254C16.7638 7.97549 16.0788 7.51775 15.3248 7.20546C14.5709 6.89316 13.7628 6.73242 12.9467 6.73242C12.1306 6.73242 11.3226 6.89316 10.5686 7.20546C9.81465 7.51775 9.12959 7.97549 8.55254 8.55254C7.97549 9.12959 7.51775 9.81465 7.20546 10.5686C6.89316 11.3226 6.73242 12.1306 6.73242 12.9467Z" fill="white"/>
<path d="M6.73242 12.9467C6.73242 13.7628 6.89316 14.5709 7.20546 15.3248C7.51775 16.0788 7.97549 16.7638 8.55254 17.3409C9.12959 17.9179 9.81465 18.3757 10.5686 18.688C11.3226 19.0003 12.1306 19.161 12.9467 19.161C13.7628 19.161 14.5709 19.0003 15.3248 18.688C16.0788 18.3757 16.7638 17.9179 17.3409 17.3409C17.9179 16.7638 18.3757 16.0788 18.688 15.3248C19.0003 14.5709 19.161 13.7628 19.161 12.9467C19.161 12.1306 19.0003 11.3226 18.688 10.5686C18.3757 9.81465 17.9179 9.12959 17.3409 8.55254C16.7638 7.97549 16.0788 7.51775 15.3248 7.20546C14.5709 6.89316 13.7628 6.73242 12.9467 6.73242C12.1306 6.73242 11.3226 6.89316 10.5686 7.20546C9.81465 7.51775 9.12959 7.97549 8.55254 8.55254C7.97549 9.12959 7.51775 9.81465 7.20546 10.5686C6.89316 11.3226 6.73242 12.1306 6.73242 12.9467Z" fill="#781D66"/>
<path d="M6.73242 12.9467C6.73242 13.7628 6.89316 14.5709 7.20546 15.3248C7.51775 16.0788 7.97549 16.7638 8.55254 17.3409C9.12959 17.9179 9.81465 18.3757 10.5686 18.688C11.3226 19.0003 12.1306 19.161 12.9467 19.161C13.7628 19.161 14.5709 19.0003 15.3248 18.688C16.0788 18.3757 16.7638 17.9179 17.3409 17.3409C17.9179 16.7638 18.3757 16.0788 18.688 15.3248C19.0003 14.5709 19.161 13.7628 19.161 12.9467C19.161 12.1306 19.0003 11.3226 18.688 10.5686C18.3757 9.81465 17.9179 9.12959 17.3409 8.55254C16.7638 7.97549 16.0788 7.51775 15.3248 7.20546C14.5709 6.89316 13.7628 6.73242 12.9467 6.73242C12.1306 6.73242 11.3226 6.89316 10.5686 7.20546C9.81465 7.51775 9.12959 7.97549 8.55254 8.55254C7.97549 9.12959 7.51775 9.81465 7.20546 10.5686C6.89316 11.3226 6.73242 12.1306 6.73242 12.9467Z" stroke="white" stroke-width="1.93786"/>
<path d="M17.6074 17.6074L21.7503 21.7503" stroke="white" stroke-width="1.93786" stroke-linecap="round" stroke-linejoin="round"/>
</g>
<defs>
<clipPath id="clip0_399_1138">
<rect width="29" height="29" fill="white"/>
</clipPath>
</defs>
</svg>
