<svg width="23" height="18" viewBox="0 0 23 18" fill="none" xmlns="http://www.w3.org/2000/svg">
<path d="M22.2211 2.74428C21.4156 3.09399 20.5635 3.32438 19.6915 3.42818C20.6079 2.89196 21.297 2.04007 21.6297 1.03229C20.7633 1.53855 19.817 1.89377 18.8313 2.08273C18.4162 1.64804 17.9171 1.30223 17.3641 1.06633C16.8111 0.830423 16.2159 0.709346 15.6147 0.710457C13.1804 0.710457 11.2104 2.65041 11.2104 5.04183C11.2087 5.37446 11.2468 5.70611 11.324 6.02968C9.57849 5.94791 7.86923 5.50294 6.30563 4.72324C4.74202 3.94353 3.3585 2.84626 2.24358 1.50164C1.85244 2.16056 1.64558 2.91237 1.64463 3.6785C1.64463 5.1804 2.42877 6.50797 3.61281 7.28574C2.9113 7.2691 2.22416 7.08356 1.60974 6.74487V6.79851C1.60974 8.89938 3.1306 10.6471 5.14351 11.045C4.76499 11.1458 4.37493 11.1969 3.98318 11.1969C3.70521 11.1974 3.42787 11.1705 3.15521 11.1165C3.71479 12.8374 5.34346 14.089 7.27273 14.1247C5.70506 15.332 3.78038 15.9846 1.80119 15.9798C1.44987 15.9792 1.09889 15.9584 0.75 15.9172C2.76344 17.2019 5.1039 17.8815 7.4928 17.875C15.6053 17.875 20.0373 11.2729 20.0373 5.54693C20.0373 5.35919 20.0323 5.17146 20.0234 4.98819C20.8836 4.37673 21.6278 3.61686 22.2211 2.74428Z" fill="white"/>
</svg>
