<svg width="32" height="32" viewBox="0 0 32 32" fill="none" xmlns="http://www.w3.org/2000/svg">
<path d="M30.2397 14.2762C30.6191 14.7493 30.8294 15.3642 30.8294 15.9996C30.8294 16.6373 30.6191 17.2499 30.2397 17.723C27.8397 20.6282 22.3768 26.2853 15.9997 26.2853C9.62255 26.2853 4.15969 20.6282 1.75969 17.723C1.37383 17.2318 1.16595 16.6242 1.16998 15.9996C1.16998 15.3642 1.38027 14.7493 1.75969 14.2762C4.15969 11.371 9.62255 5.71387 15.9997 5.71387C22.3768 5.71387 27.8397 11.371 30.2397 14.2762Z" stroke="white" stroke-width="1.94526" stroke-linecap="round" stroke-linejoin="round"/>
<path d="M15.9992 20.5716C17.2116 20.5716 18.3743 20.0899 19.2317 19.2326C20.089 18.3753 20.5706 17.2126 20.5706 16.0001C20.5706 14.7877 20.089 13.625 19.2317 12.7677C18.3743 11.9103 17.2116 11.4287 15.9992 11.4287C14.7867 11.4287 13.624 11.9103 12.7667 12.7677C11.9094 13.625 11.4277 14.7877 11.4277 16.0001C11.4277 17.2126 11.9094 18.3753 12.7667 19.2326C13.624 20.0899 14.7867 20.5716 15.9992 20.5716Z" fill="#781D66"/>
<path d="M15.9992 20.5716C17.2116 20.5716 18.3743 20.0899 19.2317 19.2326C20.089 18.3753 20.5706 17.2126 20.5706 16.0001C20.5706 14.7877 20.089 13.625 19.2317 12.7677C18.3743 11.9103 17.2116 11.4287 15.9992 11.4287C14.7867 11.4287 13.624 11.9103 12.7667 12.7677C11.9094 13.625 11.4277 14.7877 11.4277 16.0001C11.4277 17.2126 11.9094 18.3753 12.7667 19.2326C13.624 20.0899 14.7867 20.5716 15.9992 20.5716Z" stroke="white" stroke-width="1.94526" stroke-linecap="round" stroke-linejoin="round"/>
</svg>
