<svg width="20" height="20" viewBox="0 0 20 20" fill="none" xmlns="http://www.w3.org/2000/svg">
<path d="M15.85 8.16964C15.175 7.93718 14.5793 7.5192 14.131 6.96363C13.6369 6.34464 13.0079 5.84685 12.2919 5.50834C11.5758 5.16984 10.7919 4.99959 10 5.01062C8.93473 4.93518 7.88013 5.26374 7.04621 5.93088C6.21229 6.59802 5.66024 7.55479 5.5 8.61064C5.81561 8.08256 6.29061 7.66822 6.85665 7.42724C7.4227 7.18627 8.0506 7.13109 8.65 7.26964C9.32382 7.50886 9.91862 7.92928 10.369 8.48464C10.8658 9.09869 11.4961 9.59134 12.2119 9.92509C12.9278 10.2588 13.7103 10.4249 14.5 10.4107C15.5653 10.4861 16.6199 10.1575 17.4538 9.4904C18.2877 8.82325 18.8398 7.86649 19 6.81063C18.6901 7.34503 18.2166 7.76563 17.6494 8.01034C17.0822 8.25505 16.4514 8.3109 15.85 8.16964ZM4.15 12.6517C4.82495 12.8841 5.42072 13.3021 5.869 13.8577C6.36306 14.4767 6.99215 14.9745 7.70815 15.313C8.42415 15.6515 9.20809 15.8217 10 15.8107C11.0653 15.8861 12.1199 15.5576 12.9538 14.8904C13.7877 14.2233 14.3398 13.2665 14.5 12.2107C14.1844 12.7388 13.7094 13.1531 13.1433 13.3941C12.5773 13.635 11.9494 13.6902 11.35 13.5517C10.6762 13.3124 10.0814 12.892 9.631 12.3367C9.1329 11.7241 8.50236 11.2326 7.78682 10.899C7.07128 10.5654 6.28939 10.3984 5.5 10.4107C4.43473 10.3352 3.38013 10.6638 2.54621 11.3309C1.71229 11.9981 1.16024 12.9548 1 14.0107C1.30988 13.4763 1.78337 13.0557 2.35057 12.811C2.91777 12.5663 3.54863 12.5104 4.15 12.6517Z" fill="#781D66"/>
</svg>
