<svg width="18" height="18" viewBox="0 0 18 18" fill="none" xmlns="http://www.w3.org/2000/svg">
<path d="M16.1766 9.37801C16.1449 9.02483 15.9741 8.69874 15.7019 8.47147C15.4296 8.24421 15.0783 8.13439 14.7251 8.16618C14.3719 8.19797 14.0458 8.36875 13.8186 8.64097C13.5913 8.91318 13.4815 9.26453 13.5133 9.61771C13.6184 10.8134 13.3018 12.0082 12.6184 12.9949C11.881 14.042 10.7986 14.7963 9.56084 15.1256C8.24786 15.4732 6.85393 15.341 5.62972 14.7527C4.33409 14.1303 3.30018 13.07 2.71067 11.7591C3.12237 13.2198 4.0375 14.4877 5.29413 15.3386C6.61904 16.2155 8.2124 16.593 9.78989 16.404C11.4476 16.2281 12.9904 15.4737 14.1472 14.2733C15.3487 13.0053 16.0669 11.3558 16.1766 9.61239V9.56977C16.1817 9.50595 16.1817 9.44183 16.1766 9.37801ZM4.04235 9.34072C3.93721 8.14505 4.2538 6.95029 4.93724 5.96358C5.67467 4.91641 6.75706 4.16213 7.99478 3.83289C9.30777 3.48525 10.7017 3.61747 11.9259 4.20576C13.2215 4.82814 14.2555 5.88847 14.845 7.19938C14.4333 5.73868 13.5181 4.4707 12.2615 3.61982C10.9366 2.74297 9.34323 2.36539 7.76574 2.55447C6.10799 2.73035 4.56523 3.48475 3.40847 4.68516C2.20697 5.95315 1.48872 7.60268 1.37899 9.34605V9.38866C1.37367 9.45425 1.37367 9.52016 1.37899 9.58575C1.41077 9.93894 1.58156 10.265 1.85378 10.4923C2.12599 10.7196 2.47734 10.8294 2.83052 10.7976C3.1837 10.7658 3.5098 10.595 3.73706 10.3228C3.96432 10.0506 4.07414 9.69923 4.04235 9.34605V9.34072Z" fill="#781D66"/>
</svg>
