<svg width="37" height="37" viewBox="0 0 37 37" fill="none" xmlns="http://www.w3.org/2000/svg">
<g id="wide 1">
<path id="Vector" d="M18.5 3.875C10.436 3.875 3.875 10.436 3.875 18.5C3.875 26.564 10.436 33.125 18.5 33.125C26.564 33.125 33.125 26.564 33.125 18.5C33.125 10.436 26.564 3.875 18.5 3.875ZM28.838 11.7155C27.134 12.0935 25.4075 12.3755 23.672 12.5645C23.306 10.25 22.7225 8.1665 21.92 6.623C24.7865 7.451 27.233 9.278 28.838 11.7155ZM21.875 18.5C21.875 19.766 21.8135 20.9315 21.716 22.013C19.5755 21.8765 17.426 21.8765 15.284 22.013C15.185 20.9315 15.125 19.7675 15.125 18.5C15.125 17.2415 15.185 16.085 15.2825 15.008C16.3535 15.08 17.426 15.125 18.5 15.125C19.574 15.125 20.6465 15.08 21.7175 15.008C21.815 16.0835 21.875 17.2415 21.875 18.5ZM18.5 30.875C17.669 30.875 16.2725 28.568 15.566 24.2525C17.5205 24.1325 19.481 24.1325 21.4355 24.2525C20.7275 28.5665 19.331 30.8735 18.5015 30.8735L18.5 30.875ZM15.566 12.746C16.274 8.432 17.6705 6.125 18.5 6.125C19.3295 6.125 20.7275 8.432 21.434 12.746C19.4795 12.866 17.5205 12.866 15.566 12.746ZM15.0815 6.6215C14.2775 8.165 13.6955 10.2485 13.3295 12.563C11.594 12.3755 9.869 12.092 8.1635 11.714C9.7685 9.2765 12.215 7.4495 15.0815 6.6215ZM6.1265 18.4985C6.1265 16.826 6.464 15.2315 7.0685 13.775C9.0395 14.24 11.0375 14.5805 13.049 14.807C12.9365 16.016 12.8765 17.2565 12.8765 18.4985C12.8765 19.7405 12.938 20.99 13.0505 22.205C11.039 22.4255 9.0395 22.7585 7.0685 23.2235C6.464 21.767 6.1265 20.1725 6.1265 18.5V18.4985ZM8.1635 25.283C9.869 24.905 11.594 24.623 13.3295 24.434C13.6955 26.7485 14.279 28.832 15.0815 30.3755C12.215 29.5475 9.7685 27.7205 8.1635 25.283ZM21.9215 30.3755C22.7255 28.832 23.3075 26.7485 23.6735 24.434C25.409 24.6215 27.134 24.905 28.8395 25.283C27.2345 27.7205 24.788 29.5475 21.9215 30.3755ZM23.9525 22.2035C24.065 20.99 24.1265 19.7435 24.1265 18.4985C24.1265 17.2535 24.0665 16.016 23.954 14.807C25.9655 14.5805 27.9635 14.24 29.9345 13.775C30.539 15.2315 30.8765 16.826 30.8765 18.4985C30.8765 20.171 30.539 21.7655 29.9345 23.222C27.9635 22.757 25.964 22.424 23.9525 22.2035Z" fill="url(#paint0_linear_1283_667)"/>
</g>
<defs>
<linearGradient id="paint0_linear_1283_667" x1="8.1635" y1="28.8365" x2="28.8365" y2="8.1635" gradientUnits="userSpaceOnUse">
<stop stop-color="#5433FF"/>
<stop offset="1" stop-color="#20BDFF"/>
</linearGradient>
</defs>
</svg>
